<?xml version="1.0" standalone="no"?> <!DOCTYPE svg PUBLIC "-//W3C//DTD SVG 1.0//EN" "http://www.w3.org/TR/2001/REC-SVG-20010904/DTD/svg10.dtd" > <svg xmlns="http://www.w3.org/2000/svg" width="100%" height="100%">
<defs >
<font id="prociono-regular" horiz-adv-x="1105" ><font-face
    font-family="Prociono"
    units-per-em="2048"
    panose-1="2 0 5 3 0 0 0 0 0 0"
    ascent="2064"
    descent="-432"
    alphabetic="0" />
<missing-glyph horiz-adv-x="1024" d="M102 0V1087H922V0H102ZM205 102H819V985H205V102Z" />
<glyph unicode=" " glyph-name="space" horiz-adv-x="491" />
<glyph unicode="!" glyph-name="exclam" horiz-adv-x="491" d="M141 1520Q287 1540 350 1554L375 1532Q299 582 264 401L197 414L186 586Q141 1404 141 1520ZM348 123Q348 89 299 35T213 -20Q185 -20 150 64T115 172Q115 198 150 250T221 303Q255 303 301 228T348 123Z" />
<glyph unicode="&quot;" glyph-name="quotedbl" horiz-adv-x="753" d="M442 1620Q470 1632 537 1632Q602 1632 631 1620L578 1157H496L442 1620ZM123 1620Q150 1632 217 1632T311 1620L258 1157H176L123 1620Z" />
<glyph unicode="#" glyph-name="numbersign" horiz-adv-x="997" d="M98 334L117 424H276L295 614H137L156 705H311Q336 902 336 973Q347 978 382 983T447 990L477 993Q436 869 422 709H618Q643 884 643 977Q654 982 688 986T750 992L778 993Q738 857 725 713H915L895
618H715L690 432H872L854 334H692Q670 233 670 31Q659 25 627 20T568 11L541 8Q559 107 582 332H377Q356 242 356 33Q346 27 315 22T256 13L229 10Q257 173 268 334H98ZM387 426H586L610 616H410L387 426Z" />
<glyph unicode="$" glyph-name="dollar" horiz-adv-x="983" d="M172 733Q172 832 207 885Q265 979 315 1018T440 1069V1245H524V1075H530Q620 1075 698 1040Q720 1031 731 1025T755 996T768 940Q768 934 767 909T764 838T762 739H686Q684 765 669 817T635 895Q605
941 524 952V637Q560 624 583 616T639 591T694 560T739 520T778 469T801 405T811 324Q811 216 780 164Q745 109 713 73T647 17T589 -11T524 -27V-197H440V-35Q332 -34 272 -12T193 39Q176 64 176 109Q176 198 177 241T185 312T201 344T231 350Q255 350 266 331T278
286T287 224T315 162Q351 109 440 98V442Q392 459 361 471T290 509T228 562T189 634T172 733ZM309 819Q309 763 342 729T440 668V952Q399 946 371 930T331 891T314 852T309 819ZM524 98Q597 108 637 147T678 250T638 350T524 414V98Z" />
<glyph unicode="%" glyph-name="percent" horiz-adv-x="1427" d="M86 756Q86 922 186 1001Q227 1034 276 1053T354 1073Q410 1073 456 1054T532 1004T584 931T614 844T623 752Q623 726 615 685T598 621Q591 604 573 579T524 520T445 465T344 442Q223 442 155 529T86
756ZM190 758Q190 671 245 617T362 563Q450 563 483 605T516 752Q516 842 464 897T346 952Q321 952 305 951T265 939T226 909T201 851T190 758ZM307 -6L1030 1100L1106 1051L383 -55L307 -6ZM803 289Q803 451 903 535Q945 568 994 587T1071 606Q1140 606 1194 578T1279
502T1325 399T1341 285Q1341 258 1333 217T1315 154Q1307 136 1289 111T1240 53T1161 -2T1061 -25Q939 -25 871 61T803 289ZM907 291Q907 204 962 150T1079 96Q1167 96 1200 137T1233 285Q1233 375 1181 429T1063 483Q1045 483 1035 483T1006 478T975 467T949 446T927
412T913 361T907 291Z" />
<glyph unicode="&amp;" glyph-name="ampersand" horiz-adv-x="1597" d="M92 397Q92 489 128 570T227 705Q332 798 469 881Q291 1100 291 1264Q291 1381 398 1475T659 1569Q818 1569 879 1542T940 1456Q940 1352 864 1196L795 1212Q805 1274 805 1296Q805 1448
641 1448Q569 1448 519 1404T469 1282Q469 1169 641 941T1098 455Q1150 553 1179 657T1208 846Q1208 919 1175 945T1057 977V1044Q1134 1038 1278 1038T1499 1044V977Q1436 972 1399 954T1346 907T1316 826T1291 718T1247 571T1167 391Q1358 226 1577 68V0Q1409
0 1305 -8L1069 240Q996 144 891 72L825 27Q770 -13 722 -25T547 -37Q494 -37 471 -36T413 -30T356 -12T304 21T238 78Q92 217 92 397ZM295 453Q295 318 395 220T633 121Q839 121 1001 311L530 811Q409 733 352 641T295 453Z" />
<glyph unicode="&apos;" glyph-name="quotesingle" horiz-adv-x="434" d="M123 1620Q150 1632 217 1632T311 1620L258 1157H176L123 1620Z" />
<glyph unicode="(" glyph-name="parenleft" horiz-adv-x="675" d="M205 606Q205 785 241 967T322 1255Q339 1296 364 1339T418 1419T477 1490T534 1551T582 1598T618 1630L631 1642L676 1597Q630 1530 579 1437T502 1289T461 1200Q399 1073 399 606Q399 142 461
12Q572 -229 676 -383L631 -428L629 -427Q485 -305 392 -168Q347 -102 322 -41Q279 62 242 246T205 606Z" />
<glyph unicode=")" glyph-name="parenright" horiz-adv-x="675" d="M0 -383Q106 -224 215 12Q276 140 276 606Q276 1076 215 1200Q187 1263 126 1382T0 1597L45 1642L58 1630Q71 1619 92 1599T141 1552T199 1491T257 1420T311 1340T354 1255Q398 1148 434 966T471
606Q471 432 434 248T354 -41Q327 -107 278 -178T178 -301T94 -384T47 -427L45 -428L0 -383Z" />
<glyph unicode="*" glyph-name="asterisk" horiz-adv-x="1064" d="M102 1135L147 1296L176 1313L504 1155L426 1534L594 1538L618 1518L571 1157L905 1350L963 1190L950 1159L592 1096L879 836L745 731L713 735L541 1055L381 702L242 797L236 829L485 1092L102 1135Z" />
<glyph unicode="+" glyph-name="plus" horiz-adv-x="983" d="M23 512L51 647H426V1026L541 1053L563 1028L561 647H942L967 625L940 512H563L561 137L426 109V512H23Z" />
<glyph unicode="," glyph-name="comma" horiz-adv-x="491" d="M139 -201Q139 -193 159 -167T200 -100T221 -20Q221 15 198 54T152 127T129 180Q129 183 146 212T189 272T231 303Q264 303 313 226T362 98Q362 49 322 -32T235 -173T170 -233Q165 -233 152 -222T139 -201Z" />
<glyph unicode="-" glyph-name="hyphen" horiz-adv-x="552" d="M35 512L63 647H496L518 625L494 512H35Z" />
<glyph unicode="." glyph-name="period" horiz-adv-x="491" d="M362 123Q362 89 313 35T227 -20Q199 -20 164 64T129 172Q129 198 164 250T236 303Q270 303 316 228T362 123Z" />
<glyph unicode="/" glyph-name="slash" horiz-adv-x="983" d="M-41 -287L899 1632H1024L88 -287H-41Z" />
<glyph unicode="0" glyph-name="zero" horiz-adv-x="983" d="M61 516Q61 667 104 776T221 950Q286 1007 365 1041T489 1075Q579 1075 653 1042T776 954T858 824T907 671T922 508Q922 463 909 391T881 279Q873 257 855 224T799 143T718 57T609 -9T475 -37Q345 -37
251 35T109 231T61 516ZM199 520Q199 433 228 359T303 238T402 167T506 141Q662 141 720 221T778 508Q778 597 751 673T680 797T583 872T475 899Q444 899 425 898T373 889T320 868T274 826T234 759T209 658T199 520Z" />
<glyph unicode="1" glyph-name="one" horiz-adv-x="983" d="M123 799Q602 1057 694 1075L719 1053Q694 669 694 416Q694 295 696 229Q697 199 698 186T703 152T713 123T734 102T767 86T815 75T882 67T971 63V0H188V63H240Q278 64 301 65T362 69T422 79T470 95T506
120T520 156Q523 176 526 280T530 428Q530 491 518 838Q403 838 152 737L123 799Z" />
<glyph unicode="2" glyph-name="two" horiz-adv-x="983" d="M20 59L92 119L326 301Q407 365 460 411T562 512T635 618T659 719Q659 760 650 793T619 857T549 906T434 924Q375 924 325 910T154 840L125 899L375 1067Q421 1079 485 1079Q538 1079 588 1071T689 1040T779
984T842 896T866 772T832 634T736 500T615 389T479 287L373 215Q324 182 291 156Q443 152 496 152Q727 152 907 170L932 147Q924 79 924 0H49L20 59Z" />
<glyph unicode="3" glyph-name="three" horiz-adv-x="983" d="M41 -322L51 -305Q92 -311 129 -311Q225 -311 321 -274T490 -179T608 -44T653 106Q653 157 639 197T588 273T480 330T303 350Q296 350 281 349T258 348L244 438Q346 454 422 484T537 546T599 615T627
676T633 723Q633 778 605 822T539 888T472 921T432 932Q401 932 325 906T143 821L111 879L336 1059Q395 1075 449 1075Q539 1075 622 1041T761 936T817 776Q817 567 541 440Q667 437 755 349T844 156Q844 77 811 -4T713 -158T558 -290T346 -382T88 -416L41 -322Z"
/>
<glyph unicode="4" glyph-name="four" horiz-adv-x="983" d="M-6 94L139 373Q252 571 383 779T569 1055Q585 1061 646 1069T741 1077L756 1061V158Q820 158 975 168Q983 162 991 154Q984 98 954 0H909Q811 0 756 -4Q757 -116 760 -213T766 -352L768 -393Q737 -394
679 -404T588 -424L561 -434Q567 -240 569 -6Q143 -6 43 0L-6 94ZM168 182L193 160Q285 152 395 152Q526 152 571 154Q580 425 580 692V881Q499 793 352 548T168 182Z" />
<glyph unicode="5" glyph-name="five" horiz-adv-x="983" d="M45 -322L55 -305Q96 -311 133 -311Q262 -311 378 -258T563 -115T633 74Q633 128 628 170T609 244T581 297T542 334T496 358T440 371T379 376T311 377H197L154 414Q240 950 248 1016L276 1044Q330 1040
444 1040Q598 1040 799 1049L823 1026Q811 968 811 866Q495 870 494 870Q448 870 326 866Q315 816 300 709T281 549Q338 555 430 555Q505 555 575 534T705 470T801 355T838 188Q838 3 737 -136T468 -345T92 -416L45 -322Z" />
<glyph unicode="6" glyph-name="six" horiz-adv-x="983" d="M51 551Q51 697 78 824T144 1038T240 1200T341 1318T440 1401Q587 1511 770 1571L809 1507Q790 1500 725 1464T604 1393L569 1370Q518 1335 465 1273T367 1133T291 961T256 778Q288 828 323 859T424
911T584 932Q656 932 716 912T828 846T909 718T938 522Q938 384 904 279T820 116T704 22T586 -24T481 -35Q411 -35 351 -19T235 38T139 143T75 312T51 551ZM246 635Q246 615 247 584T248 545L250 508Q252 458 256 420T268 334T289 252T323 181T372 124T440 88T530
74Q590 74 637 109T711 202T752 327T766 465Q766 620 724 693T580 797Q539 811 481 811Q429 811 390 802T324 772T282 737T248 692Q248 683 247 664T246 635Z" />
<glyph unicode="7" glyph-name="seven" horiz-adv-x="983" d="M82 688Q92 860 92 915Q92 979 90 1016L119 1044Q197 1040 571 1040Q822 1040 944 1044L969 1022Q961 896 820 593T507 -2T223 -434Q185 -419 141 -385Q402 18 536 305T748 850L723 872Q285 872 231
874Q218 868 201 833T141 688H82Z" />
<glyph unicode="8" glyph-name="eight" horiz-adv-x="983" d="M43 397Q43 544 105 642T315 825Q245 864 192 934T114 1069T90 1180Q90 1355 205 1472T494 1589Q688 1589 798 1497T909 1268Q909 1167 843 1065T649 883L719 848Q824 791 881 681T938 442Q938 351
909 267T825 115T682 6T485 -35Q285 -35 164 83T43 397ZM203 387Q203 326 231 267T303 167T397 101T492 76Q560 76 613 104T699 178T747 281T764 397Q764 448 751 491T717 565T663 624T601 671T530 711L449 754Q318 676 261 589T203 387ZM274 1284Q274 1187 345
1095T530 948Q634 995 692 1068T750 1231Q750 1351 685 1418T504 1485Q397 1485 336 1431T274 1284Z" />
<glyph unicode="9" glyph-name="nine" horiz-adv-x="983" d="M72 561Q72 680 99 772T171 920T279 1012T408 1061T551 1075Q637 1075 704 1043T812 961T879 842T916 709T926 575Q926 432 907 310T857 96T778 -72T680 -199T567 -291T446 -354T322 -391T202 -411T92
-418L80 -348Q216 -329 315 -294T492 -198T620 -44T696 178Q570 102 449 102Q285 102 179 230T72 561ZM248 616Q248 545 254 491T278 381T327 290T411 232T535 209Q648 209 711 262Q729 394 729 565Q729 591 728 615T721 681T706 757T677 830T632 894T566 938T477
956Q380 956 314 870T248 616Z" />
<glyph unicode=":" glyph-name="colon" horiz-adv-x="491" d="M362 825Q362 791 313 737T227 682Q199 682 164 766T129 874Q129 900 164 953T236 1006Q270 1006 316 930T362 825ZM362 123Q362 89 313 35T227 -20Q199 -20 164 64T129 172Q129 198 164 250T236 303Q270
303 316 228T362 123Z" />
<glyph unicode=";" glyph-name="semicolon" horiz-adv-x="491" d="M362 825Q362 791 313 737T227 682Q199 682 164 766T129 874Q129 900 164 953T236 1006Q270 1006 316 930T362 825ZM139 -201Q139 -193 159 -167T200 -100T221 -20Q221 15 198 54T152 127T129
180Q129 183 146 212T189 272T231 303Q264 303 313 226T362 98Q362 49 322 -32T235 -173T170 -233Q165 -233 152 -222T139 -201Z" />
<glyph unicode="&lt;" glyph-name="less" horiz-adv-x="983" d="M-6 506L23 649L965 1069L989 1047L965 922L178 571L965 221L989 96L965 74L-6 506Z" />
<glyph unicode="=" glyph-name="equal" horiz-adv-x="983" d="M9 352L38 487H949L974 465L947 352H9ZM9 672L38 807H949L974 784L947 672H9Z" />
<glyph unicode="&gt;" glyph-name="greater" horiz-adv-x="983" d="M-6 96L18 221L805 571L18 922L-6 1047L18 1069L989 637L961 494L18 74L-6 96Z" />
<glyph unicode="?" glyph-name="question" horiz-adv-x="911" d="M293 645Q272 445 264 401L197 414L174 840Q299 733 395 733Q538 733 598 803T659 1010Q659 1074 641 1200Q628 1290 588 1326T467 1362Q418 1362 379 1357T315 1345T271 1325T242 1301T225 1271T216
1240T210 1207T203 1174H152Q143 1320 143 1364Q143 1413 160 1438T231 1476T391 1489Q465 1489 532 1464T644 1403T724 1327T774 1262T793 1229Q819 1096 819 993Q819 904 801 833T742 706T631 620T463 590Q371 590 293 645ZM348 123Q348 89 299 35T213 -20Q185
-20 150 64T115 172Q115 198 150 250T221 303Q255 303 301 228T348 123Z" />
<glyph unicode="@" glyph-name="at" horiz-adv-x="1884" d="M41 487Q41 652 83 799T199 1058T372 1260T587 1407T825 1494T1071 1524T1306 1496T1516 1407T1686 1260T1799 1051T1841 782Q1841 627 1758 435T1554 109T1335 -25Q1307 -25 1284 -16T1238 16T1197
87T1169 205Q1082 120 973 47T807 -27Q792 -27 770 -20T715 5T651 56T593 136T549 255T532 416Q532 545 583 669T710 879T867 1016T1014 1069Q1061 1069 1136 1051T1266 1012L1337 1075L1382 1057Q1355 987 1338 680T1321 258Q1321 100 1380 100Q1408 100 1445
137T1520 242T1589 391T1641 573T1661 766Q1661 922 1604 1046T1451 1245T1239 1360T997 1399Q878 1399 774 1365T593 1274T453 1138T349 975T279 797T239 622T227 461Q227 337 255 225T346 12T500 -161T726 -276T1026 -319Q1163 -319 1366 -272L1382 -332Q1312
-360 1181 -388T969 -416Q787 -416 634 -367T373 -232T189 -31T77 216T41 487ZM680 461Q680 356 746 248T874 139Q948 139 1030 189T1176 319Q1183 399 1192 587T1202 799Q1061 940 940 940Q820 940 750 807T680 461Z" />
<glyph unicode="A" glyph-name="A" horiz-adv-x="1546" d="M0 0V74Q67 80 100 103T170 194T274 430L700 1495Q715 1505 768 1513T840 1522Q1364 225 1378 197Q1393 170 1404 155T1435 120T1482 90T1546 74V0H961V70Q1143 85 1143 160Q1143 212 1100 313L1061 403Q1031
473 1018 510H426Q388 426 344 309T299 170Q299 146 314 129T359 103T416 89T483 80V0H0ZM455 598H991L719 1272L455 598Z" />
<glyph unicode="B" glyph-name="B" horiz-adv-x="1329" d="M59 0V76Q95 78 118 80T168 89T209 104T234 130T244 170Q244 883 229 1354Q228 1400 198 1414T88 1434L59 1436V1511Q171 1503 342 1503Q527 1503 631 1513T756 1524H797Q903 1524 984 1498T1109 1434T1180
1345T1215 1254T1223 1174Q1223 1107 1207 1054T1159 962T1088 894T995 838L934 807Q1276 692 1276 436Q1276 315 1206 211T1023 48T786 -12H743Q684 -12 582 -4L516 0Q406 8 342 8Q171 8 59 0ZM444 287Q444 256 447 234T461 193T484 162T521 141T569 127T635 120T715
116T815 115Q853 115 894 135T973 193T1035 294T1059 434Q1059 584 963 664T711 745Q526 745 449 733Q444 500 444 287ZM449 831Q576 844 705 844Q741 844 791 840Q849 857 891 889T955 961T988 1042T999 1126Q999 1194 978 1249T928 1335T865 1387T808 1415T772
1423Q548 1423 481 1399L457 1376Q451 1088 449 831Z" />
<glyph unicode="C" glyph-name="C" horiz-adv-x="1382" d="M86 750Q86 1003 158 1171Q176 1213 216 1265T316 1372T462 1471T641 1526Q744 1540 881 1540Q993 1540 1099 1524T1253 1481L1276 1458Q1276 1442 1268 1280T1257 1098H1186Q1179 1120 1162 1177T1131
1277T1118 1321Q1106 1361 1085 1374Q937 1413 780 1413Q679 1413 605 1399T476 1349T386 1264T330 1136T300 965T291 741Q291 313 563 147Q683 78 821 78Q983 78 1122 182Q1144 223 1182 365L1210 475H1286Q1278 391 1278 68Q1004 -35 770 -35Q649 -35 549 -12T362
68T215 212T121 437T86 750Z" />
<glyph unicode="D" glyph-name="D" horiz-adv-x="1589" d="M59 0V76Q95 78 118 80T168 89T209 104T234 130T244 170Q244 883 229 1354Q228 1400 198 1414T88 1434L59 1436V1511Q171 1503 344 1503Q537 1503 657 1513T821 1524H864Q1198 1524 1351 1360T1505 838Q1505
654 1461 505T1346 261T1182 104T998 14T815 -12H772Q721 -12 570 -2T344 8Q171 8 59 0ZM442 287Q442 216 476 181T596 130T848 115Q927 115 983 130T1082 180T1150 251T1212 352Q1294 496 1294 772Q1294 1107 1162 1264T745 1421Q549 1421 481 1399L459 1376Q454
1232 448 816T442 287Z" />
<glyph unicode="E" glyph-name="E" horiz-adv-x="1310" d="M59 0V76Q95 78 118 80T168 89T209 104T234 130T244 170Q252 434 252 846Q252 1154 244 1354Q243 1400 213 1414T104 1434L76 1436V1511Q186 1503 358 1503Q522 1503 614 1509L1153 1511L1178 1489Q1173
1473 1149 1304T1122 1110H1053Q1009 1328 1008 1331Q995 1370 975 1384Q950 1390 899 1397Q850 1403 641 1403Q548 1403 511 1390T473 1333Q469 1222 465 846Q547 846 738 850T969 856L948 705H913Q876 732 782 743T578 756T463 758Q459 455 459 170Q459 121 533
106T801 90Q859 90 930 96T1016 115Q1068 160 1120 365L1149 475H1225Q1220 421 1213 226T1206 0H59Z" />
<glyph unicode="F" glyph-name="F" horiz-adv-x="1155" d="M59 0V76Q104 79 131 82T188 95T230 123T244 170Q244 172 244 212T246 321T248 472T249 660T250 862Q250 1144 244 1354Q243 1400 213 1414T104 1434L74 1436V1511Q188 1503 358 1503Q520 1503 614 1509L1102
1511L1126 1489Q1122 1472 1098 1303T1071 1110H1001Q994 1151 976 1239T956 1331Q945 1369 924 1384Q903 1389 848 1397Q799 1403 641 1403Q547 1403 510 1390T471 1333Q463 880 463 846Q546 846 737 850T969 856L948 705H911Q875 732 780 743T577 756T463 758Q457
303 457 170Q457 143 469 125T510 98T566 84T641 76L719 70V0H59Z" />
<glyph unicode="G" glyph-name="G" horiz-adv-x="1550" d="M86 750Q86 1003 158 1171Q176 1213 216 1265T316 1372T462 1471T641 1526Q744 1540 881 1540Q1002 1540 1147 1523T1335 1481L1360 1458Q1360 1444 1352 1284T1341 1098H1270Q1205 1311 1196 1333Q1154
1360 1036 1386T782 1413Q681 1413 607 1399T477 1349T386 1264T330 1136T300 965T291 741Q291 633 306 544T362 370T467 227T636 133T877 98Q986 98 1057 119T1178 186V471Q1178 495 1165 511T1124 535T1073 547T1010 553L958 557L956 627Q1082 618 1276 618Q1398
618 1524 627V551L1495 549Q1425 545 1398 530T1370 485V104L1348 82Q1222 38 1061 2T770 -35Q649 -35 549 -12T362 68T215 212T121 437T86 750Z" />
<glyph unicode="H" glyph-name="H" horiz-adv-x="1738" d="M59 0V76Q95 78 118 80T168 89T209 104T234 130T244 170Q244 883 229 1354Q228 1400 198 1414T88 1434L59 1436V1511H627V1436L598 1434Q518 1428 488 1414T457 1354Q450 989 449 846H1290Q1287 1093
1280 1354Q1279 1400 1249 1414T1139 1434L1110 1436V1511H1677V1436L1649 1434Q1569 1428 1539 1414T1507 1354Q1503 1224 1500 924T1495 417T1493 170Q1493 143 1505 125T1546 98T1602 84T1677 76V0H1110V76Q1146 78 1169 80T1218 89T1259 104T1284 130T1294
170Q1294 453 1290 758H446Q445 633 444 483T443 256T442 170Q442 143 454 125T495 98T551 84T627 76V0H59Z" />
<glyph unicode="I" glyph-name="I" horiz-adv-x="686" d="M59 0V76Q95 78 118 80T168 89T209 104T234 130T244 170Q244 883 229 1354Q228 1400 198 1414T88 1434L59 1436V1511H627V1436L598 1434Q518 1428 488 1414T457 1354Q452 1224 449 923T444 418T442 170Q442
143 454 125T495 98T551 84T627 76V0H59Z" />
<glyph unicode="J" glyph-name="J" horiz-adv-x="638" d="M0 -332L55 -289Q153 -201 182 -107T211 188Q211 1225 199 1354Q196 1400 167 1414T59 1434L31 1436V1511H598V1436L567 1434Q488 1428 458 1414T428 1354Q424 991 414 525T395 16Q376 -107 303 -199T131
-348L41 -397L0 -332Z" />
<glyph unicode="K" glyph-name="K" horiz-adv-x="1372" d="M66 1436V1511H446L471 1489Q467 1405 463 1155T459 842Q507 843 598 927T771 1115T916 1305T979 1401Q979 1417 956 1424T858 1436V1511H1333V1436Q1247 1430 1220 1419T1139 1362Q1037 1271 811 1016L680
864Q723 803 792 707T1013 411T1245 123L1372 74V0Q1174 0 1061 -8L524 741Q514 756 494 756H459Q459 617 460 398T461 170Q461 143 473 125T514 98T570 84T645 76V0H78V76Q114 78 137 80T186 89T227 104T252 130T262 170Q262 182 258 412T247 938T236 1354Q234
1400 204 1414T96 1434L66 1436Z" />
<glyph unicode="L" glyph-name="L" horiz-adv-x="1142" d="M59 0V76Q108 80 135 84T191 97T231 124T244 170Q244 897 229 1354Q226 1400 197 1414T88 1434L59 1436V1511H653V1436L625 1434Q581 1431 557 1428T507 1416T470 1393T457 1354Q452 1224 449 923T444
418T442 170Q442 90 643 90H686Q905 90 934 115Q986 160 1038 365L1067 475H1143Q1138 421 1131 226T1124 0H59Z" />
<glyph unicode="M" glyph-name="M" horiz-adv-x="1951" d="M4 1436V1511H471L489 1456L948 317Q1201 865 1413 1456L1432 1511H1898V1436Q1842 1433 1811 1430T1745 1420T1693 1398T1677 1362Q1677 1357 1681 1236T1696 827T1716 238L1718 180Q1720 153 1727 136T1745
107T1777 90T1821 82T1884 76V0H1317V76Q1353 78 1376 80T1425 89T1466 104T1491 130T1501 170Q1496 573 1456 1223Q1174 602 942 0H862L338 1231Q307 712 307 170Q307 146 322 129T366 103T422 89T489 80V0H6V74Q99 84 133 127T176 270Q196 586 208 859T222 1248L225
1364Q225 1385 209 1399T157 1420T91 1430T4 1436Z" />
<glyph unicode="N" glyph-name="N" horiz-adv-x="1591" d="M31 1436V1511H418Q441 1442 1296 326Q1294 349 1291 588T1288 956Q1288 1030 1280 1298Q1279 1329 1277 1345T1265 1378T1236 1404T1183 1421T1096 1434V1511H1591V1438Q1456 1426 1425 1382Q1422 1378
1419 1362T1414 1332L1413 1319Q1409 1192 1406 947T1401 530T1399 336L1403 0H1282Q1258 37 1243 59T1195 126T1132 209T1027 344T874 538T646 828T336 1223V594Q346 203 346 170Q346 146 360 129T401 103T455 89T522 80V0H39V74Q117 81 160 100T209 164Q223 268
223 922V987Q223 1026 223 1079T223 1180T222 1270T221 1338T221 1366Q217 1389 200 1404T133 1425L31 1436Z" />
<glyph unicode="O" glyph-name="O" horiz-adv-x="1525" d="M86 733Q86 1052 217 1249Q261 1314 326 1367T458 1450T594 1502T717 1530T809 1538Q1129 1538 1285 1356T1442 842Q1442 463 1296 250Q1244 174 1165 116T1004 29T854 -15T735 -29Q601 -29 493 9T309
116T184 280T110 489T86 733ZM295 776Q295 753 295 735T299 671T310 587T330 495T365 397T417 304T489 220T584 154Q644 124 695 115T829 106Q922 106 993 138T1119 240T1202 431T1231 719Q1231 865 1209 980T1151 1170T1064 1296T960 1373T846 1407Q827 1411 735
1411Q658 1411 593 1391T472 1323T378 1204T317 1024T295 776Z" />
<glyph unicode="P" glyph-name="P" horiz-adv-x="1304" d="M59 0V76Q104 79 131 82T187 95T229 123T244 170Q250 380 250 862Q250 1144 244 1354Q243 1400 213 1414T102 1434L74 1436V1511Q188 1503 358 1503Q542 1503 645 1513T770 1524H811Q909 1524 984 1500T1106
1436T1181 1341T1222 1229T1233 1108Q1233 1057 1214 999T1150 880T1044 770T887 690T680 659Q538 659 461 692Q460 577 459 445T458 245T457 170Q457 143 475 125T531 98T599 84T682 76L760 70V0H59ZM463 823Q492 799 553 781T698 762Q759 762 808 774T888 804T943
851T977 905T995 965T1003 1022T1004 1073Q1004 1109 1003 1131T998 1190T983 1253T956 1309T911 1363T846 1405Q805 1423 786 1423Q567 1423 496 1399L473 1376Q467 1209 463 823Z" />
<glyph unicode="Q" glyph-name="Q" horiz-adv-x="1525" d="M86 733Q86 1052 217 1249Q261 1314 326 1367T458 1450T594 1502T717 1530T809 1538Q1129 1538 1285 1356T1442 842Q1442 675 1416 545T1338 319T1215 158T1047 47Q1236 -158 1339 -233Q1320 -259 1290
-311T1247 -391L1219 -399L899 -4Q813 -29 735 -29Q601 -29 493 9T309 116T184 280T110 489T86 733ZM295 776Q295 753 295 735T299 671T310 587T330 495T365 397T417 304T489 220T584 154Q644 124 695 115T829 106Q922 106 993 138T1119 240T1202 431T1231 719Q1231
865 1209 980T1151 1170T1064 1296T960 1373T846 1407Q827 1411 735 1411Q658 1411 593 1391T472 1323T378 1204T317 1024T295 776Z" />
<glyph unicode="R" glyph-name="R" horiz-adv-x="1370" d="M66 0V76Q102 78 125 80T174 89T215 104T240 130T250 170Q250 878 236 1354Q234 1400 204 1414T94 1434L66 1436V1511Q180 1503 350 1503Q519 1503 632 1513T762 1524H803Q941 1524 1042 1424T1143 1159Q1143
1089 1128 1035T1076 937T1000 860T893 782Q1108 360 1257 123L1370 74V0Q1186 0 1073 -8L715 731H657Q530 731 455 758Q449 325 449 170Q449 142 461 125T502 98T558 84T633 76V0H66ZM457 868Q514 834 672 834Q731 834 778 854T852 904T898 976T923 1054T930 1130Q930
1198 912 1253T869 1339T815 1391T766 1419T735 1427Q546 1427 485 1401L465 1378Q461 1287 457 868Z" />
<glyph unicode="S" glyph-name="S" horiz-adv-x="1062" d="M117 1112Q117 1243 162 1327T346 1489Q376 1505 400 1514T479 1533T606 1542Q689 1542 770 1519T909 1464L934 1442Q934 1425 926 1264T915 1081H844Q837 1104 820 1161T789 1260T776 1305Q760 1344
743 1358Q722 1377 668 1394T545 1411Q415 1411 348 1364T281 1196Q281 1146 295 1106T337 1038T388 994T444 961L756 799Q1001 672 1001 418Q1001 310 974 246T868 90Q757 -31 518 -31Q334 -31 119 61Q133 257 133 475H209L238 365Q265 254 281 223T336 160Q438
115 567 115Q690 115 749 163T809 338Q809 515 621 614L455 696Q335 758 298 781T236 829L219 848Q117 958 117 1112Z" />
<glyph unicode="T" glyph-name="T" horiz-adv-x="1245" d="M0 1489L23 1511H1223L1245 1489Q1235 1314 1235 1085H1163Q1156 1112 1139 1167T1109 1266T1094 1311Q1089 1327 1075 1356Q1060 1371 1038 1374Q999 1381 928 1388T823 1395Q786 1395 737 1384Q721
998 721 170Q721 148 735 131T768 104T821 88T879 78T942 72V0H287V72Q325 75 349 77T406 87T459 104T492 131T506 170Q512 568 512 948Q512 1262 508 1384Q459 1395 422 1395Q389 1395 318 1388T207 1374Q184 1370 170 1356Q160 1334 152 1311Q151 1309 137 1266T106
1168T82 1085H10Q10 1314 0 1489Z" />
<glyph unicode="U" glyph-name="U" horiz-adv-x="1550" d="M70 1436V1511H635V1436Q596 1433 573 1430T524 1421T484 1405T461 1379T451 1341Q451 1305 452 1112T453 799V635Q455 522 455 403Q455 366 466 328T509 246T587 170T712 116T889 94Q961 94 1015 105T1109
138T1177 199T1222 285T1249 402T1262 548T1266 729Q1266 812 1264 1011T1262 1341Q1262 1365 1247 1382T1202 1409T1145 1423T1077 1432V1511H1561V1438Q1402 1419 1397 1348L1395 1311Q1391 1253 1383 906T1374 487Q1374 391 1355 314T1305 184T1224 92T1124
30T1004 -6T876 -24T741 -29Q653 -29 580 -10T456 40T366 113T304 199T267 288T247 370T242 438Q238 1309 236 1331Q228 1395 197 1412T70 1436Z" />
<glyph unicode="V" glyph-name="V" horiz-adv-x="1536" d="M0 1436V1511H565V1436Q484 1429 449 1413T414 1364V1356Q414 1320 580 841T801 248Q904 477 1063 888T1223 1337Q1223 1384 1192 1402T1053 1432V1511H1536V1438Q1491 1433 1466 1423T1414 1379T1365
1300T1303 1159L821 0H690L160 1307Q133 1372 101 1402T0 1436Z" />
<glyph unicode="W" glyph-name="W" horiz-adv-x="2048" d="M0 1436V1511H532V1436Q425 1427 392 1414T358 1356Q358 1321 471 876T618 342Q677 491 807 909T938 1362Q938 1403 903 1417T782 1436V1511H1350V1436Q1319 1434 1300 1432T1258 1422T1222 1402T1210
1368Q1210 1351 1258 1158T1376 715T1495 342Q1583 607 1681 957T1780 1346Q1780 1389 1742 1406T1610 1432V1511H2048V1438Q2000 1434 1976 1415T1933 1352Q1542 70 1528 0H1376Q1341 167 1212 570T1014 1165Q961 1029 811 563T643 0H483Q474 82 145 1221L119
1307Q103 1371 79 1401T0 1436Z" />
<glyph unicode="X" glyph-name="X" horiz-adv-x="1323" d="M0 0V74Q54 79 147 168Q181 199 324 391T580 741L160 1374Q119 1431 35 1436V1511H602V1436Q523 1429 493 1418T463 1382Q463 1333 723 909Q842 1071 929 1207T1016 1372Q1016 1401 989 1411T860 1432V1511H1319V1438Q1229
1426 1124 1290L776 821L1047 373Q1093 295 1119 253T1171 173T1211 121T1246 94T1281 80T1323 76V0H797V76Q950 87 950 135Q950 148 928 188L633 653Q515 495 403 330T291 141Q291 114 332 102T459 80V0H0Z" />
<glyph unicode="Y" glyph-name="Y" horiz-adv-x="1329" d="M0 1436V1511H565V1436Q465 1428 430 1414T395 1368Q395 1317 705 836Q810 988 928 1169T1047 1378T1015 1416T903 1432V1511H1329V1438Q1250 1429 1217 1386L758 752Q752 617 752 305Q752 156 762 137Q779
104 832 91T967 72V0H332V72Q363 74 383 76T432 83T478 95T513 112T538 136T547 170Q547 320 545 461T541 668L539 733Q491 820 131 1339Q129 1343 125 1349T106 1371T78 1399T43 1423T0 1436Z" />
<glyph unicode="Z" glyph-name="Z" horiz-adv-x="1353" d="M43 23L956 1397Q854 1407 741 1407Q709 1407 381 1399Q350 1398 324 1365T291 1307Q290 1305 277 1262T246 1164T221 1081H152Q151 1102 147 1285T143 1489L168 1511H1255L1280 1489Q424 283 346 123Q469
102 580 102Q844 102 937 108T1047 129Q1099 173 1151 365L1171 440H1253Q1248 361 1243 194T1237 0H68L43 23Z" />
<glyph unicode="[" glyph-name="bracketleft" horiz-adv-x="604" d="M205 -395V1610L227 1632Q245 1628 367 1628Q502 1628 604 1632V1565Q525 1563 483 1559T420 1538T394 1503T389 1444V-231Q390 -265 393 -280T406 -312T440 -334T502 -344T604 -350V-420Q451
-414 367 -414Q326 -414 294 -415T245 -417T227 -418L205 -395Z" />
<glyph unicode="\" glyph-name="backslash" horiz-adv-x="983" d="M-41 1632H84L1024 -287H895L-41 1632Z" />
<glyph unicode="]" glyph-name="bracketright" horiz-adv-x="604" d="M0 -350Q64 -349 102 -345T164 -334T198 -312T211 -281T215 -231V1444Q214 1485 210 1503T185 1537T121 1558T0 1565V1632Q102 1628 238 1628Q361 1628 377 1632L399 1610V-395L377 -418Q376
-418 360 -417T312 -415T238 -414Q153 -414 0 -420V-350Z" />
<glyph unicode="^" glyph-name="asciicircum" horiz-adv-x="983" d="M-6 559L414 1503L557 1530L989 559L967 535L842 559L492 1346L141 559L16 535L-6 559Z" />
<glyph unicode="_" glyph-name="underscore" horiz-adv-x="1024" d="M0 -88L1024 -86V-201H0V-88Z" />
<glyph unicode="`" glyph-name="grave" horiz-adv-x="1024" d="M295 1464Q298 1501 334 1528T414 1556Q612 1309 729 1188L692 1145Q615 1197 491 1298T295 1464Z" />
<glyph unicode="a" glyph-name="a" horiz-adv-x="978" d="M842 262Q842 224 865 180T911 102T934 53Q934 42 915 37Q772 -10 758 -10Q738 -10 721 19T688 92T672 137Q641 117 597 87T534 45T484 17T428 -5T367 -15T283 -20Q238 -20 203 -5T145 37T108 98T88 170T82
248Q82 312 95 362T127 446T183 508T253 551T340 581T436 604T546 624T659 647Q659 674 660 717T662 770Q662 820 641 856T586 910T515 937T438 946Q401 946 375 942T328 922T294 892T267 843T244 779T219 692L135 700Q136 707 137 736T140 789T151 849T175 915T219
975T289 1028T391 1063T530 1077Q595 1077 647 1067T732 1041T788 1001T823 954T841 901T849 851T850 803Q850 647 846 471T842 262ZM266 268Q266 191 303 154T403 117Q459 117 525 145T647 219Q662 231 662 393Q662 506 659 567Q422 488 419 488Q324 452 295 411T266
268Z" />
<glyph unicode="b" glyph-name="b" horiz-adv-x="1095" d="M20 1583Q108 1591 180 1603T286 1624T328 1632Q362 1632 362 1602V1513L354 946Q505 1029 569 1054T670 1079Q763 1079 831 1055T939 990T1002 887T1034 757T1042 602Q1042 461 1023 364T954 193Q934
165 861 98T717 0Q649 -31 518 -31Q437 -31 326 5T176 96Q175 347 175 653T174 1104T168 1331Q161 1453 159 1467Q151 1502 123 1510Q103 1516 25 1516L20 1583ZM350 436Q350 303 354 258T371 201Q395 170 475 141T631 111Q712 111 755 136T825 250Q842 304 851
423T860 586Q860 671 841 736T794 838T726 899T652 930T580 938Q552 938 533 935T468 913T352 858V723Q350 600 350 436Z" />
<glyph unicode="c" glyph-name="c" horiz-adv-x="903" d="M61 492Q61 649 88 784Q94 814 120 847T160 893Q231 958 286 997T388 1052T460 1071T532 1075Q612 1075 698 1059T811 1032Q805 970 805 725H743Q723 815 711 856Q700 892 622 913T449 934Q327 934 286
856T244 557Q244 478 250 419T273 303T321 209T402 151T522 129Q583 129 653 165T763 238L803 274L846 233Q837 223 798 178T741 116T685 63T616 13T544 -15T455 -29Q349 -29 233 33Q185 77 154 124T90 246Q61 371 61 492Z" />
<glyph unicode="d" glyph-name="d" horiz-adv-x="1079" d="M61 496Q61 577 67 643T82 754T107 837T135 895T170 936T204 964T240 987L309 1028Q396 1081 514 1081Q608 1081 731 1053Q731 1131 729 1232T727 1360Q727 1397 727 1417T723 1457T716 1485T700 1501T678
1511T643 1515T597 1518Q588 1518 584 1518L580 1585Q668 1593 740 1605T847 1626T889 1634Q902 1634 913 1626T924 1602Q924 1162 917 757T909 264Q909 225 935 178T988 96T1014 53Q1014 47 996 40T953 25T922 14Q842 -20 825 -20Q809 -20 792 14T760 89T735 139Q659
55 595 12T463 -31Q435 -31 398 -20T314 16T223 82T143 180T84 318T61 496ZM485 963Q437 963 405 957T340 929T287 865T255 751T242 573Q242 361 322 253T522 145Q638 145 733 238Q733 596 730 746T727 905Q685 930 618 946T485 963Z" />
<glyph unicode="e" glyph-name="e" horiz-adv-x="956" d="M61 504Q61 602 76 691T106 817Q140 893 264 982T498 1071Q579 1071 643 1053T748 1006T818 934T861 852T882 762T891 677T893 601Q893 583 893 575Q827 535 678 535H258Q258 491 258 467T261 403T268
339T282 282T304 230T338 188T384 155T445 135T524 127Q702 127 850 272L895 225Q887 217 856 185T815 143T776 106T732 68T690 37T643 8T595 -12T540 -27T483 -31Q384 -31 308 2T186 86T111 211T72 354T61 504ZM262 627H379Q526 627 597 633T702 664Q702 697 698
729T680 800T644 869T582 918T489 938Q430 938 390 926T325 891T286 829T267 743T262 627Z" />
<glyph unicode="f" glyph-name="f" horiz-adv-x="747" d="M61 918V987L244 1018Q244 1110 261 1197T314 1364T404 1503T534 1598T705 1634Q804 1634 837 1580T870 1403Q870 1391 869 1366T868 1327L780 1325Q759 1445 725 1502T651 1559Q603 1559 556 1486T479
1296T449 1063V1032H723L717 918H449Q440 529 440 199Q440 178 440 165T445 139T453 120T468 106T488 96T518 89T556 82T606 74T668 63V0H94V70Q199 85 220 95Q250 109 256 153Q258 172 258 209Q258 352 246 918H61Z" />
<glyph unicode="g" glyph-name="g" horiz-adv-x="972" d="M20 -170Q20 -146 23 -126T42 -76T83 -18T161 41T283 104Q121 128 121 215Q121 231 125 244T145 279T201 322T303 362Q199 409 154 461T90 612Q88 621 88 651Q88 762 123 840Q135 864 171 900T260 977T390
1045T541 1073Q665 1073 762 991Q857 995 961 1018L973 1006V920H811Q827 897 839 830T852 711Q852 625 825 564T733 442Q628 381 475 348Q307 305 307 231Q307 202 332 182T395 162H639Q667 162 733 157T825 141Q876 122 924 60T973 -76Q973 -120 957 -164T900
-255T801 -337T649 -395T440 -418Q388 -418 336 -412T225 -388T122 -344T49 -272T20 -170ZM197 -18T197 -111T286 -271T475 -338Q626 -338 701 -271T776 -94Q776 -26 721 17T537 61Q375 61 286 22ZM276 664Q276 570 329 511T483 451T620 504T657 705Q657 797 639
845T579 915T457 946Q446 948 428 948Q353 948 315 886T276 664Z" />
<glyph unicode="h" glyph-name="h" horiz-adv-x="1157" d="M45 1583Q133 1591 205 1603T311 1624T352 1632Q387 1632 387 1602Q387 1593 386 1536T385 1468L383 940Q497 1003 603 1038T776 1073Q835 1073 877 1055T944 1005T984 918T1003 804T1008 657Q1008 602
1005 457T1001 223Q1001 125 1016 102T1106 70V0H717V70Q737 75 749 78T774 87T792 99T805 116T813 138T817 171T819 213T819 268V635Q819 700 817 741T809 817T793 870T765 902T722 920T662 924Q599 924 513 897T383 842Q377 603 377 248Q377 210 377 192T380
151T387 118T399 98T420 82T451 75T494 70V0H76V70Q143 74 170 94T197 156Q197 348 198 635T199 1114Q199 1377 186 1439Q174 1496 136 1509Q115 1516 49 1516L45 1583Z" />
<glyph unicode="i" glyph-name="i" horiz-adv-x="577" d="M182 1362Q182 1386 216 1447T293 1509Q323 1509 368 1471T414 1384T372 1287T293 1239Q265 1239 224 1289T182 1362ZM61 0V70Q134 75 166 85T209 115T219 178V604Q219 696 218 750T212 848T200 911T179
944T148 959T102 961H72L68 1028Q155 1036 227 1048T333 1069T375 1077Q410 1077 410 1044Q410 1020 407 911T402 600T399 154Q399 112 432 94T537 70V0H61Z" />
<glyph unicode="j" glyph-name="j" horiz-adv-x="516" d="M143 1362Q143 1386 178 1447T256 1509Q286 1509 331 1471T377 1384T334 1287T256 1239Q226 1239 185 1289T143 1362ZM-10 -379Q78 -268 84 -259Q139 -182 158 -78Q181 52 183 466Q184 569 184 754Q184
847 175 889T143 947T68 963H37L33 1030Q122 1038 194 1050T299 1071T340 1079Q375 1079 375 1047Q375 413 360 215Q342 -26 281 -145Q235 -234 125 -330Q92 -359 25 -414L-10 -379Z" />
<glyph unicode="k" glyph-name="k" horiz-adv-x="1177" d="M47 1583Q135 1591 206 1603T311 1624T352 1632Q367 1632 378 1625T389 1602V1589V1544V1513L387 604Q431 604 509 668T649 814T711 940Q711 975 668 975Q650 975 640 986T629 1012Q629 1041 668 1044Q739
1038 866 1038Q990 1038 1061 1044Q1078 1044 1088 1035T1098 1012T1091 990T1075 978T1056 973T1044 969Q992 949 927 906T806 814T700 721T622 647L594 618L1153 61Q1178 36 1178 20Q1178 12 1172 7T1160 1L1153 0Q997 0 901 -8Q572 382 513 441Q468 487 433
500Q382 518 383 518Q385 489 385 444Q385 378 383 298T381 199Q381 179 381 165T385 139T389 120T398 106T409 96T426 89T447 83T475 77T508 70V0H66V70Q147 88 158 92Q191 106 199 149Q207 186 207 297Q207 500 209 761T211 1090Q211 1373 189 1445Q173 1496
132 1508Q115 1513 51 1516L47 1583Z" />
<glyph unicode="l" glyph-name="l" horiz-adv-x="581" d="M53 0V70Q68 73 95 77T131 83T157 90T179 100T192 116T203 140T208 175T212 221T213 283V662Q213 871 207 1335L205 1434Q204 1485 181 1499T90 1513H63L59 1581Q147 1591 219 1604T325 1626T367 1634Q401
1634 401 1604Q406 1394 406 1182Q406 932 396 646T385 195Q385 173 385 159T390 132T397 112T411 98T429 88T457 81T491 76T537 70V0H53Z" />
<glyph unicode="m" glyph-name="m" horiz-adv-x="1708" d="M66 1010Q148 1019 234 1049T342 1079Q370 1079 379 1057T389 971V942Q399 948 437 969T488 998T533 1022T582 1045T625 1061T672 1073T715 1077Q776 1077 834 1046T971 932Q1167 1077 1313 1077Q1365
1077 1406 1058T1473 1011T1515 949T1538 886T1544 836Q1544 691 1542 515T1540 301Q1540 140 1560 103Q1575 77 1618 73Q1623 72 1661 70V0H1243V70Q1321 74 1340 101T1360 227Q1360 254 1359 417T1358 729Q1358 763 1358 781T1354 824T1343 862T1322 889T1289
910T1241 921T1174 926Q1121 926 969 848Q967 582 967 301Q967 265 968 239T969 190T974 152T979 125T988 106T999 93T1015 85T1033 80T1056 75T1083 70V0H666V70Q741 74 758 101T776 219Q776 457 777 616T778 797Q778 862 741 894T596 926Q556 926 494 901T393
850Q379 384 379 295Q379 255 379 229T382 179T386 142T394 117T404 101T419 91T438 84T464 78T494 70V0H76V70Q143 74 169 94T195 156Q195 449 195 590T189 806T179 890T162 911Q157 915 151 918T140 923T125 926T109 928T90 930T70 932L66 1010Z" />
<glyph unicode="n" glyph-name="n" horiz-adv-x="1153" d="M66 1010Q149 1019 235 1049T342 1079Q370 1079 380 1057T391 971V942Q627 1075 776 1075Q827 1075 866 1060T930 1020T969 963T991 899T997 836V152Q997 107 1016 91T1106 70V0H688V70Q742 74 767 85T799
111T805 160V809Q805 840 793 862T764 897T721 916T674 924T625 926Q586 926 513 902T397 850Q395 729 391 597T385 383T383 254Q383 209 384 180T393 130T406 99T429 82T460 74T504 70V0H74V70Q101 74 114 76T144 85T167 96T182 115T193 143T198 183T201 236T201
307Q201 332 195 593T186 864Q183 875 180 883T172 898T164 909T153 917T142 923T127 926T111 928T93 930T72 932L66 1010Z" />
<glyph unicode="o" glyph-name="o" horiz-adv-x="1058" d="M61 532Q61 628 87 713T145 850Q199 935 336 1006T565 1077Q632 1077 693 1062T813 1010T913 920T980 785T1006 602Q1006 466 986 377T915 213Q903 198 887 179T837 121T760 50T680 0Q603 -35 494 -35Q434
-35 381 -24T267 24T163 120T90 286T61 532ZM256 549Q256 422 279 335T348 199T451 131T588 111Q649 111 678 121Q819 175 819 547Q819 720 774 801T614 918Q558 932 504 932Q414 932 374 914Q281 870 262 676Q256 620 256 549Z" />
<glyph unicode="p" glyph-name="p" horiz-adv-x="1134" d="M61 1028Q150 1036 222 1048T328 1069T369 1077Q383 1077 394 1069T406 1044Q406 1042 403 992T399 930Q414 937 479 980T608 1050T737 1077Q749 1077 767 1075T820 1062T887 1033T956 980T1019 899T1063
780T1081 618Q1081 323 960 156T647 -12Q601 -12 564 -7T501 8T457 29T426 54T407 78T395 101T387 117Q386 54 383 -59T379 -201Q380 -286 401 -309T502 -346V-416H84V-350Q150 -343 176 -322T203 -262Q201 -70 201 850Q201 889 198 907T181 940T141 957T66 961L61
1028ZM387 463Q387 247 430 167T608 86Q660 86 707 112T796 191T861 339T885 557Q885 747 822 833T649 920Q546 920 397 844Q396 784 392 655T387 463Z" />
<glyph unicode="q" glyph-name="q" horiz-adv-x="1103" d="M61 471Q61 811 250 938Q369 1018 433 1046T559 1075Q594 1075 651 1064T806 1042T1034 1028V958Q975 934 957 910T932 815Q913 590 913 -57Q913 -242 930 -285Q942 -317 979 -330Q981 -331 1034 -346V-416H616V-350Q650
-344 667 -338T701 -319T725 -280T736 -216T741 -113Q741 -26 735 121Q538 -25 403 -25Q317 -25 250 17T142 131T82 289T61 471ZM258 483Q258 385 278 313T334 200T411 142T502 123Q601 123 690 186Q735 218 735 311V823V856Q734 881 708 898T643 923T575 933T520
936Q258 936 258 483Z" />
<glyph unicode="r" glyph-name="r" horiz-adv-x="815" d="M51 0V70Q142 80 164 91Q197 107 204 165Q209 201 209 305V373Q209 753 198 832Q189 907 156 923Q142 930 82 935Q79 936 76 936L72 1014Q154 1023 239 1053T348 1083Q375 1083 385 1060T395 975L397 897Q576
1071 682 1071Q758 1071 786 1052T815 985Q815 968 812 943T805 897T794 834T782 764H709Q697 918 604 918Q585 918 553 907T484 876T423 820T397 741Q397 684 396 453T395 186Q395 128 426 107Q454 88 570 71Q566 71 625 63V0H51Z" />
<glyph unicode="s" glyph-name="s" horiz-adv-x="792" d="M92 733Q92 832 127 885Q200 1003 265 1039T461 1075Q537 1075 618 1040Q640 1031 651 1025T675 996T688 940Q688 934 687 909T684 838T682 739H606Q604 765 589 817T555 895Q514 954 401 954Q357 954
324 943T274 917T246 882T232 848T229 819Q229 771 256 737T328 683T426 644T533 603T631 548T703 458T731 324Q731 216 700 164Q668 112 643 83T569 16Q538 -6 473 -20T375 -35Q259 -35 195 -14T113 39Q96 64 96 109Q96 169 96 204T99 270T105 313T115 336T130
348T152 350Q176 350 186 331T198 286T208 224T236 162Q282 96 406 96Q496 96 547 137T598 250Q598 301 570 336T498 392T399 430T291 469T193 521T120 605T92 733Z" />
<glyph unicode="t" glyph-name="t" horiz-adv-x="686" d="M383 918Q383 804 380 635T377 412Q377 253 396 184T473 115Q523 115 623 174L666 133Q585 49 518 9T408 -31Q352 -31 314 -15T252 30T215 113T198 228T193 385Q193 444 196 621T199 918H20V979L199 1014V1202Q223
1209 243 1215T278 1225T304 1233T323 1239T336 1244T345 1247T350 1249T352 1250T354 1251T356 1251Q387 1251 387 1221Q387 1213 385 1172T383 1096V1032H643L637 918H383Z" />
<glyph unicode="u" glyph-name="u" horiz-adv-x="1138" d="M985 298T985 260T1008 178T1054 100T1077 51Q1077 40 1059 35Q915 -12 901 -12Q881 -12 864 17T831 90T815 135Q730 75 643 38T510 -9T436 -18Q362 -18 294 41T203 188Q196 213 189 295T182 442V637Q182
701 182 740T179 816T173 873T163 909T148 932T126 944T96 949T58 950Q52 950 49 950L45 1020Q124 1029 192 1042T294 1065T336 1075Q373 1075 373 1044Q373 920 369 709T365 446Q365 294 385 238Q400 196 438 170T508 143Q550 143 618 158T717 188Q776 218 788
236T801 303Q801 440 803 599T805 788Q805 841 803 871T797 920T783 947T761 956T727 958H662L657 1026Q746 1035 818 1047T924 1067T965 1075Q1001 1075 1001 1044Q1001 785 993 542Z" />
<glyph unicode="v" glyph-name="v" horiz-adv-x="1007" d="M0 1026Q79 1036 148 1050T251 1074T293 1083Q328 1083 328 1053Q328 1024 382 815T490 410L543 215Q760 788 760 913Q760 944 749 957T723 970T698 978T686 1010Q686 1047 756 1047Q773 1047 803 1045T844
1042Q878 1042 921 1046T979 1051Q1008 1051 1008 1020Q1008 1014 1006 1009T996 992T977 963T946 907T902 819T841 683T762 494Q732 420 704 349T660 232T627 143T601 75T581 29T563 -3T545 -20T523 -29T494 -31Q451 -31 431 -2Q410 28 368 171Q331 297 319 338Q301
396 269 510T218 692T171 827T121 922Q112 932 103 938T81 947T60 952T33 955T4 958L0 1026Z" />
<glyph unicode="w" glyph-name="w" horiz-adv-x="1660" d="M0 1026Q78 1036 146 1050T249 1074T291 1083Q328 1083 328 1053Q328 1024 382 815T490 410L543 215Q758 786 758 909Q758 933 742 968T725 1014Q725 1051 877 1051Q894 1051 907 1050T930 1047T946 1042T956
1037T963 1029T966 1022T968 1013T969 1004Q986 922 1038 725T1133 371L1176 215Q1393 791 1393 913Q1393 941 1386 955T1367 972T1345 975T1327 983T1319 1010Q1319 1047 1389 1047Q1406 1047 1436 1045T1477 1042Q1511 1042 1564 1046T1632 1051Q1661 1051 1661
1020Q1661 1013 1654 1005T1626 969T1579 894T1502 742T1395 494Q1365 420 1337 349T1293 232T1260 143T1234 75T1214 29T1196 -3T1178 -20T1155 -29T1126 -31Q1079 -31 1059 6T993 199Q968 285 952 338Q932 403 897 529T848 702L760 494Q733 427 708 362T667 253T635
167T610 99T590 50T572 14T557 -9T539 -23T519 -29T492 -31Q445 -31 426 4T362 188Q335 279 317 338Q302 388 278 476T236 623T198 747T158 857T119 922Q111 932 102 938T81 947T60 952T33 955T4 958L0 1026Z" />
<glyph unicode="x" glyph-name="x" horiz-adv-x="927" d="M-10 0V70Q36 73 57 86Q96 112 189 245Q243 323 389 545Q346 612 303 682T240 787T196 858T159 908T127 936T88 954T39 961L35 1028Q107 1037 176 1057T262 1077Q273 1077 281 1075T299 1064T317 1048T337
1020T360 983T388 933T422 871T464 792T516 698Q530 717 550 745T583 792T612 832T638 869T657 899T670 923T674 938Q674 963 662 974T636 985T610 992T598 1018Q598 1023 600 1030T615 1045T645 1053Q656 1053 693 1051T762 1049Q793 1049 826 1051T881 1053Q922
1053 922 1010Q922 996 912 989T887 978T848 959T803 913Q758 857 683 751T582 604Q748 345 824 219T914 61T928 4Q928 -37 893 -37Q830 -37 728 82T457 459Q433 422 402 375T355 303T318 246T287 197T267 162T254 132T250 111Q250 93 267 85T326 70V0H-10Z" />
<glyph unicode="y" glyph-name="y" horiz-adv-x="1007" d="M0 1026Q78 1036 147 1050T250 1074T293 1083Q328 1083 328 1053Q328 1024 382 815T490 410L543 215Q760 793 760 913Q760 944 749 957T723 970T698 978T686 1010Q686 1047 756 1047Q772 1047 802 1045T844
1042Q878 1042 921 1046T979 1051Q1008 1051 1008 1020Q1008 1014 1006 1009T996 992T977 963T945 907T901 819T839 683T760 494Q573 28 464 -315Q438 -397 429 -411T395 -426Q260 -426 260 -367Q260 -342 283 -300T333 -219T383 -129T406 -39Q406 37 289 451T121
922Q112 932 103 938T81 947T60 952T33 955T4 958L0 1026Z" />
<glyph unicode="z" glyph-name="z" horiz-adv-x="1056" d="M68 53L696 936Q696 944 487 944H477Q426 944 403 944T347 939T304 929T273 907T248 874T229 822T209 752T188 657H111Q115 755 118 882Q122 1012 129 1029Q140 1042 162 1042Q170 1042 249 1039T479
1036Q581 1036 690 1038T857 1042L915 1044Q975 1044 975 1001Q975 977 944 932T846 807L793 741Q647 560 544 407T409 190T377 115Q377 104 403 104Q529 104 616 109T750 122T824 144T858 168T873 199Q876 206 877 209Q886 232 892 257T906 316T920 373L1006 367Q981
150 981 -29Q981 -35 982 -45T983 -61L893 -55Q893 -39 892 -30T881 -13T861 -2T824 4T770 7T690 8Q570 8 90 0L68 53Z" />
<glyph unicode="{" glyph-name="braceleft" horiz-adv-x="794" d="M102 578L115 643Q235 673 328 702Q346 728 353 856T360 1126T378 1401T434 1573Q587 1610 776 1640L795 1573Q695 1552 582 1516Q563 1488 558 1360T547 1057T526 786Q515 721 438 668T315 608Q360
604 437 551T526 432Q542 336 547 162T557 -140T582 -297Q666 -327 795 -358L776 -426Q530 -383 434 -358Q396 -321 378 -186T358 92T351 364T328 518Q243 546 102 578Z" />
<glyph unicode="|" glyph-name="bar" horiz-adv-x="491" d="M166 -416V1632H326V-416H166Z" />
<glyph unicode="}" glyph-name="braceright" horiz-adv-x="794" d="M0 -358Q129 -327 213 -297Q232 -269 237 -141T247 162T268 432Q276 477 320 519T409 583T479 608Q454 612 410 634T321 698T268 786Q252 883 248 1057T238 1359T213 1516Q100 1552 0 1573L18
1640Q208 1610 360 1573Q398 1535 416 1401T434 1126T442 857T467 702Q590 663 692 641L680 575Q568 551 467 518Q451 494 445 365T437 93T417 -185T360 -358Q263 -383 18 -426L0 -358Z" />
<glyph unicode="~" glyph-name="asciitilde" horiz-adv-x="983" d="M4 586Q34 626 59 654T121 712T199 757T289 772Q341 772 403 752T513 708T614 663T705 643Q744 643 780 668T868 764L977 696Q855 508 694 508Q642 508 581 528T472 572T368 617T266 637Q249
637 234 632T186 598T113 516L4 586Z" />
</font>
</defs>
</svg>
