<?xml version="1.0" standalone="no"?> <!DOCTYPE svg PUBLIC "-//W3C//DTD SVG 1.0//EN" "http://www.w3.org/TR/2001/REC-SVG-20010904/DTD/svg10.dtd" > <svg xmlns="http://www.w3.org/2000/svg" width="100%" height="100%">
<defs >
<font id="adellebasic_bold" horiz-adv-x="979" ><font-face
    font-family="Adelle Basic Rg"
    units-per-em="2048"
    panose-1="2 0 8 3 0 0 0 2 0 4"
    ascent="1547"
    descent="-502"
    alphabetic="0" />
<missing-glyph horiz-adv-x="1024" />
<glyph unicode=" " glyph-name="space" horiz-adv-x="413" />
<glyph unicode="!" glyph-name="exclam" horiz-adv-x="569" d="M414 401H156L119 1120V1483H449V1120L414 401ZM461 295T461 135T285 -25T109 135T285 295Z" />
<glyph unicode="&quot;" glyph-name="quotedbl" horiz-adv-x="825" d="M358 915H82V1446H358V915ZM743 915H467V1446H743V915Z" />
<glyph unicode="#" glyph-name="numbersign" horiz-adv-x="1243" d="M831 0H621L655 248H479L442 0H229L266 248H61L106 455H299L334 686H129L172 895H365L397 1112H610L578 895H754L786 1112H999L967 895H1174L1133 686H936L901 455H1108L1067 248H868L831 0ZM688
455L723 686H547L510 455H688Z" />
<glyph unicode="$" glyph-name="dollar" horiz-adv-x="1083" d="M999 399Q999 240 914 144T680 16V-164H426V2Q200 13 70 76V403H293L319 260Q324 238 331 230T358 215Q410 197 510 197Q717 197 717 342Q717 384 696 415T637 466T553 501T453 532T347 565T247
611T162 676T104 771T82 903Q82 1062 175 1159T426 1288V1448H682V1298Q836 1287 975 1239V889L750 911L725 1047Q721 1069 713 1077T684 1092Q643 1102 567 1102Q474 1102 420 1068T365 965Q365 915 400 880T491 824T614 783T749 736T873 670T964 562T999 399Z"
/>
<glyph unicode="%" glyph-name="percent" horiz-adv-x="1818" d="M410 526Q335 526 276 545T177 596T113 675T77 773T66 887Q66 1067 156 1168T426 1270Q768 1270 768 913Q768 733 677 630T410 526ZM662 -35H377L1149 1272H1432L662 -35ZM420 694Q482 694 509
745T537 905Q537 1004 511 1052T422 1100Q301 1100 301 901Q301 796 329 745T420 694ZM1395 -25Q1301 -25 1233 3T1125 82T1069 196T1051 336Q1051 516 1141 617T1411 719Q1753 719 1753 362Q1753 182 1662 79T1395 -25ZM1340 143T1403 143T1493 193T1520 354Q1520
454 1494 501T1405 549Q1286 549 1286 350Q1286 244 1313 194Z" />
<glyph unicode="&amp;" glyph-name="ampersand" horiz-adv-x="1470" d="M1409 0H1063L950 131Q785 -25 537 -25Q327 -25 200 86T72 397Q72 692 367 815Q291 936 291 1053Q291 1209 401 1300T686 1391Q790 1391 892 1364T1051 1300V979L831 987L807 1124Q804 1140
798 1146T778 1157Q751 1165 705 1165Q646 1165 615 1135T584 1053T609 954T696 836L926 565Q956 659 973 793H1325V635L1231 616Q1212 613 1206 607T1196 582Q1169 451 1120 350L1249 203Q1268 180 1288 178L1409 160V0ZM784 317L514 625Q369 564 369 412Q369
329 416 275T561 221Q696 221 784 317Z" />
<glyph unicode="&apos;" glyph-name="quotesingle" horiz-adv-x="442" d="M358 915H82V1446H358V915Z" />
<glyph unicode="(" glyph-name="parenleft" horiz-adv-x="729" d="M655 -221L420 -354Q274 -164 180 76T86 573Q86 1058 438 1524L670 1386Q539 1191 478 998T416 573Q416 335 475 159T655 -221Z" />
<glyph unicode=")" glyph-name="parenright" horiz-adv-x="729" d="M297 -354L66 -219Q191 -29 253 162T315 590Q315 821 255 1003T70 1389L303 1524Q450 1336 546 1091T643 590Q643 109 297 -354Z" />
<glyph unicode="*" glyph-name="asterisk" horiz-adv-x="976" d="M342 782L168 911L256 1026L434 1141L221 1133L84 1178L154 1382L291 1337L453 1204L379 1403V1546H594V1403L522 1204H453L434 1141L487 1100L428 899L342 782ZM809 911L635 782L549 899L487 1100L543
1141L522 1204L686 1337L823 1382L891 1178L754 1133L543 1141L721 1026L809 911Z" />
<glyph unicode="+" glyph-name="plus" horiz-adv-x="1167" d="M705 248H459V543H186V780H459V1067H705V780H979V543H705V248Z" />
<glyph unicode="," glyph-name="comma" horiz-adv-x="516" d="M281 -244L141 -203L197 16Q202 36 186 41L102 70L147 291Q201 290 238 287T315 275T379 248T418 202T434 131Q434 74 391 -10L281 -244Z" />
<glyph unicode="-" glyph-name="hyphen" horiz-adv-x="636" d="M596 465H41V725H596V465Z" />
<glyph unicode="." glyph-name="period" horiz-adv-x="555" d="M453 135Q453 -25 279 -25Q102 -25 102 135T279 295Q365 295 409 255T453 135Z" />
<glyph unicode="/" glyph-name="slash" horiz-adv-x="929" d="M315 -188H23L598 1546H889L315 -188Z" />
<glyph unicode="0" glyph-name="zero" horiz-adv-x="1232" d="M606 -25Q486 -25 395 4T244 86T147 217T94 387T78 594Q78 1210 631 1210Q750 1210 840 1182T990 1102T1087 975T1139 810T1155 610Q1155 461 1127 348T1035 150T864 20T606 -25ZM618 195Q731 195
779 288T827 598Q827 811 782 899T625 987Q509 987 459 896T408 590Q408 378 454 287T618 195Z" />
<glyph unicode="1" glyph-name="one" horiz-adv-x="831" d="M791 0H72V162L248 176Q269 177 275 185T281 217V932Q281 967 254 975L76 1012L98 1180H590V217Q590 191 595 184T623 176L791 162V0Z" />
<glyph unicode="2" glyph-name="two" horiz-adv-x="1073" d="M1012 0H66V190L340 459Q508 622 553 675Q630 767 635 845Q635 851 635 858Q635 989 489 989Q402 989 366 951T330 807L51 831Q52 925 80 995T153 1105T261 1170T384 1202T516 1210Q946 1210 946 883Q946
836 937 793T905 708T862 634T802 560T738 492T664 420L432 199H733Q749 199 756 203T766 223L795 385H1012V0Z" />
<glyph unicode="3" glyph-name="three" horiz-adv-x="1062" d="M723 551V543Q993 501 993 227Q993 31 860 -69T498 -170Q345 -170 213 -120T2 18L166 199Q233 133 303 98T473 63Q686 63 686 248Q686 424 481 424Q415 424 330 410V614L430 627Q657 655 657 848Q657
989 508 989Q421 989 383 951T344 807L63 831Q63 925 91 994T162 1104T268 1169T391 1202T522 1210Q753 1210 855 1125T958 870Q958 747 892 665T723 551Z" />
<glyph unicode="4" glyph-name="four" horiz-adv-x="1140" d="M934 -137H651V127H53V338L473 1217L741 1094L354 367H651V696L934 739V367H1104V127H934V-137Z" />
<glyph unicode="5" glyph-name="five" horiz-adv-x="1110" d="M942 922H399L371 641Q477 711 631 711Q815 711 920 604T1026 293Q1026 198 993 115T898 -33T739 -133T522 -170Q356 -170 223 -121T6 18L170 205Q309 66 496 66Q593 66 655 122T717 283Q717 343 699
384T650 445T590 473T526 481Q415 481 330 393L127 477L172 1180H707Q716 1180 721 1183T728 1191T733 1204L760 1317L942 1329V922Z" />
<glyph unicode="6" glyph-name="six" horiz-adv-x="1157" d="M1067 1004L778 969Q778 1061 746 1095T633 1130Q569 1130 524 1100T454 1015T418 895T403 748Q541 827 690 827Q874 827 982 727T1090 432Q1090 203 956 89T598 -25Q482 -25 393 9T247 102T154 248T103
432T88 649Q88 715 95 779T120 913T165 1044T237 1160T336 1255T469 1317T639 1341Q1067 1341 1067 1004ZM403 543Q405 495 408 459T420 381T442 309T478 253T531 214T604 201Q694 201 735 261T776 418Q776 522 739 565T610 608Q513 608 403 543Z" />
<glyph unicode="7" glyph-name="seven" horiz-adv-x="1089" d="M625 -137H299Q312 22 351 172T436 432T543 644T650 806T745 922H354Q340 922 336 917T328 895L295 723L80 707V1180H1069V948Q882 750 758 458T625 -137Z" />
<glyph unicode="8" glyph-name="eight" horiz-adv-x="1105" d="M823 696Q925 639 981 562T1038 371Q1038 241 971 151T792 18T532 -25Q310 -25 189 65T68 330Q68 440 119 522T262 680Q111 782 111 961Q111 1142 235 1241T559 1341Q760 1341 872 1255T985 1014Q985
923 939 841T823 696ZM459 575Q390 511 357 457T324 346Q324 267 378 224T537 180Q631 180 679 223T727 336Q727 359 720 380T704 417T676 450T643 478T600 505T557 528T507 552T459 575ZM618 795Q725 904 725 999Q725 1069 682 1104T561 1139Q487 1139 447 1103T406
1006Q406 968 421 938T469 882T533 838T618 795Z" />
<glyph unicode="9" glyph-name="nine" horiz-adv-x="1167" d="M109 -18L240 170Q299 120 374 90T524 59Q581 59 623 77T692 124T735 199T759 292T768 401Q650 324 481 324Q306 324 194 437T82 754Q82 973 211 1091T567 1210Q685 1210 775 1177T923 1086T1018 943T1070
763T1085 551Q1085 -168 539 -168Q416 -168 298 -128T109 -18ZM768 623Q765 684 760 730T742 827T707 911T650 965T565 987Q474 987 435 927T395 770Q395 657 432 603T559 549Q664 549 768 623Z" />
<glyph unicode=":" glyph-name="colon" horiz-adv-x="555" d="M453 135Q453 -25 279 -25Q102 -25 102 135T279 295Q365 295 409 255T453 135ZM453 913Q453 754 279 754Q102 754 102 913Q102 1073 279 1073Q365 1073 409 1033T453 913Z" />
<glyph unicode=";" glyph-name="semicolon" horiz-adv-x="522" d="M281 -244L141 -203L197 16Q202 36 186 41L102 70L147 291Q201 290 238 287T315 275T379 248T418 202T434 131Q434 74 391 -10L281 -244ZM461 913Q461 754 287 754Q111 754 111 913Q111 1073 287
1073Q373 1073 417 1033T461 913Z" />
<glyph unicode="&lt;" glyph-name="less" horiz-adv-x="1167" d="M940 172L141 453V739L936 1030L1006 799L408 598L1010 397L940 172Z" />
<glyph unicode="=" glyph-name="equal" horiz-adv-x="1167" d="M979 266H188V506H979V266ZM979 647H188V887H979V647Z" />
<glyph unicode="&gt;" glyph-name="greater" horiz-adv-x="1167" d="M1010 453L211 172L141 397L743 598L147 799L215 1030L1010 739V453Z" />
<glyph unicode="?" glyph-name="question" horiz-adv-x="1081" d="M600 401H291V774Q328 777 352 779T414 787T476 799T534 817T588 842T633 876T669 921T691 979T700 1051Q700 1138 657 1184T535 1231Q455 1231 397 1206Q382 1200 378 1194T371 1165L352 1034L102
1016V1393Q340 1483 549 1483Q1044 1483 1044 1061Q1044 863 931 740T600 590V401ZM621 295T621 135T446 -25Q270 -25 270 135T446 295Q621 295 621 135Z" />
<glyph unicode="@" glyph-name="at" horiz-adv-x="1722" d="M1219 -143L1268 -311Q1103 -383 852 -383Q628 -383 464 -302T209 -56T117 344Q117 527 175 680T337 939T588 1104T911 1163Q1121 1163 1280 1089T1529 867T1620 512Q1620 241 1511 108T1217 -25T981
117Q910 48 853 12T731 -25Q623 -25 561 49T498 264Q498 374 529 473T616 648T758 768T948 813Q1092 813 1233 748L1186 446Q1159 295 1159 229Q1159 150 1235 150Q1287 150 1324 186T1380 279T1407 390T1415 496Q1415 727 1290 853T905 979Q789 979 692 945T528
850T414 709T346 536T324 344Q324 76 468 -65T877 -207Q1043 -207 1219 -143ZM963 262L1022 639Q986 664 932 664Q841 664 773 561T705 297Q705 154 786 154T963 262Z" />
<glyph unicode="A" glyph-name="A" horiz-adv-x="1554" d="M1548 0H901V160L1069 178L995 391H487L416 178L578 160V0H6V160L96 182Q137 192 147 221L596 1483H958L1405 217Q1410 201 1421 194T1454 182L1548 160V0ZM934 612L752 1169H739L551 612H934Z" />
<glyph unicode="B" glyph-name="B" horiz-adv-x="1376" d="M750 0H78V160L207 174Q229 177 234 184T240 215V1264Q240 1287 234 1295T207 1305L78 1319V1483H768Q895 1483 985 1456T1124 1377T1195 1264T1217 1120Q1217 985 1145 898T967 776V770Q1139 750 1224
657T1309 408Q1309 0 750 0ZM555 221H696Q838 221 909 268T981 440Q981 655 727 655H555V221ZM555 860H637Q685 860 723 865T798 883T860 920T900 980T915 1069Q915 1118 903 1153T870 1208T816 1241T749 1256T668 1260H555V860Z" />
<glyph unicode="C" glyph-name="C" horiz-adv-x="1386" d="M1294 469V88Q1207 34 1068 5T782 -25Q594 -25 455 28T231 184T104 426T63 748Q63 913 111 1051T252 1291T491 1451T825 1509Q954 1509 1080 1478T1290 1393V991L1065 1010L1032 1210Q1029 1226 1022
1234T999 1247Q924 1272 817 1272Q618 1272 505 1138T391 748Q391 481 499 345T803 209Q922 209 1008 236Q1026 241 1033 248T1044 279L1075 469H1294Z" />
<glyph unicode="D" glyph-name="D" horiz-adv-x="1540" d="M707 0H78V164L207 178Q228 179 234 187T240 219V1266Q240 1289 234 1296T207 1307L78 1321V1483H741Q1115 1483 1296 1295T1477 764Q1477 591 1431 453T1292 212T1051 55T707 0ZM557 221H674Q806 221
900 258T1050 367T1130 531T1155 745Q1155 1024 1045 1143T686 1262H557V221Z" />
<glyph unicode="E" glyph-name="E" horiz-adv-x="1284" d="M1212 0H78V160L207 174Q229 177 234 184T240 215V1266Q240 1289 234 1297T207 1307L78 1321V1483H1167V1069L942 1079L913 1235Q908 1262 879 1262H557V858H1036V631H557V219H924Q941 219 947 223T956
242L989 422H1212V0Z" />
<glyph unicode="F" glyph-name="F" horiz-adv-x="1234" d="M891 0H78V160L207 174Q229 177 234 184T240 215V1266Q240 1289 234 1297T207 1307L78 1321V1483H1159V1069L934 1079L905 1235Q902 1250 895 1256T870 1262H557V860H1028V633H557V219Q557 194 562 188T590
178L891 162V0Z" />
<glyph unicode="G" glyph-name="G" horiz-adv-x="1478" d="M1460 551L1376 543Q1357 541 1350 535T1343 514V74Q1136 -25 813 -25Q649 -25 521 13T307 118T165 284T85 495T61 745Q61 912 109 1050T250 1291T492 1451T829 1509Q949 1509 1076 1479T1292 1391V1004L1065
1020L1034 1204Q1030 1225 1023 1233T1001 1245Q909 1272 813 1272Q616 1272 504 1132T391 750Q391 492 501 352T827 211Q915 211 997 225Q1015 228 1022 235T1030 262V530H803L831 715H1460V551Z" />
<glyph unicode="H" glyph-name="H" horiz-adv-x="1675" d="M1604 0H956V160L1085 174Q1107 177 1112 184T1118 215V647H557V217Q557 192 562 186T590 176L727 160V0H78V160L207 174Q229 177 234 184T240 215V1264Q240 1287 234 1295T207 1305L78 1319V1483H727V1319L590
1303Q567 1299 562 1293T557 1264V877H1118V1264Q1118 1287 1112 1295T1085 1305L956 1319V1483H1604V1319L1466 1303Q1444 1299 1439 1293T1434 1264V217Q1434 192 1439 186T1466 176L1604 160V0Z" />
<glyph unicode="I" glyph-name="I" horiz-adv-x="827" d="M762 0H74V160L223 174Q244 175 250 183T256 215V1264Q256 1287 250 1295T223 1305L74 1319V1483H762V1319L604 1303Q581 1299 576 1293T571 1264V217Q571 192 576 186T604 176L762 160V0Z" />
<glyph unicode="J" glyph-name="J" horiz-adv-x="1056" d="M526 336V1266Q526 1287 520 1295T494 1305L309 1319V1483H1014V1319L877 1303Q854 1299 849 1293T844 1266V334Q844 151 752 63T457 -25Q341 -25 230 0T72 55V420L301 403L322 256Q325 235 344 229Q380
217 426 217Q482 217 504 244T526 336Z" />
<glyph unicode="K" glyph-name="K" horiz-adv-x="1540" d="M1522 0H1069L686 592L557 438V219Q557 194 562 188T590 178L748 162V0H78V162L207 176Q228 177 234 185T240 217V1266Q240 1289 234 1296T207 1307L78 1321V1483H727V1321L590 1305Q567 1301 562 1295T557
1266V754L1040 1303L913 1319V1483H1450V1319L1364 1305Q1337 1300 1326 1294T1300 1270L924 844L1335 215Q1349 196 1359 191T1395 182L1522 162V0Z" />
<glyph unicode="L" glyph-name="L" horiz-adv-x="1277" d="M1212 0H78V162L207 176Q229 179 234 186T240 217V1266Q240 1289 234 1297T207 1307L78 1321V1483H760V1321L590 1305Q568 1304 563 1297T557 1266V219H922Q939 219 945 223T954 242L987 446H1212V0Z" />
<glyph unicode="M" glyph-name="M" horiz-adv-x="1970" d="M1898 0H1225V160L1393 174Q1413 177 1419 185T1425 215V993H1417L1124 295H791L502 995H492V217Q492 192 497 186T524 176L700 160V0H78V160L207 174Q229 177 234 184T240 215V1266Q240 1289 234 1296T207
1307L78 1321V1483H627L983 555H991L1366 1483H1898V1323L1761 1307Q1739 1304 1734 1298T1729 1268V215Q1729 195 1735 187T1761 176L1898 160V0Z" />
<glyph unicode="N" glyph-name="N" horiz-adv-x="1693" d="M1466 0H1130L477 1069V217Q477 192 482 186T510 176L647 160V0H78V160L207 174Q229 177 234 184T240 215V1268Q240 1291 234 1299T207 1309L78 1323V1483H586L1229 412V1264Q1229 1287 1223 1295T1196
1305L1067 1319V1483H1636V1319L1499 1303Q1476 1299 1471 1293T1466 1264V0Z" />
<glyph unicode="O" glyph-name="O" horiz-adv-x="1554" d="M768 -25Q622 -25 505 12T305 115T169 277T89 487T63 737Q63 903 110 1043T246 1287T477 1450T797 1509Q939 1509 1055 1471T1251 1366T1386 1204T1466 1000T1491 764Q1491 520 1413 346T1171 73T768
-25ZM780 227Q1165 227 1165 745Q1165 1004 1069 1127T793 1251Q608 1251 500 1125T391 743Q391 477 493 352T780 227Z" />
<glyph unicode="P" glyph-name="P" horiz-adv-x="1323" d="M881 0H78V162L207 176Q229 179 234 186T240 217V1264Q240 1287 234 1295T207 1305L78 1319V1483H772Q909 1483 1008 1449T1162 1352T1241 1215T1266 1047Q1266 547 705 547H555V219Q555 194 560 188T588
178L881 162V0ZM555 766H657Q703 766 739 771T815 792T881 835T925 912T942 1028Q942 1085 928 1127T891 1195T832 1235T760 1255T676 1260H555V766Z" />
<glyph unicode="Q" glyph-name="Q" horiz-adv-x="1552" d="M1182 -176L1241 -356Q1096 -432 950 -432Q627 -432 627 -127Q627 -72 633 -16Q485 1 373 64T192 227T89 454T55 737Q55 903 102 1043T238 1287T469 1450T788 1509Q931 1509 1047 1471T1244 1366T1378
1204T1458 1000T1483 764Q1483 438 1340 235T918 -10Q913 -35 913 -80Q913 -144 940 -175T1034 -207Q1105 -207 1182 -176ZM774 227Q955 227 1057 351T1159 745Q1159 1003 1062 1127T786 1251Q600 1251 492 1125T383 743Q383 477 485 352T774 227Z" />
<glyph unicode="R" glyph-name="R" horiz-adv-x="1406" d="M1403 0H956L772 514Q754 567 729 586T651 606H555V221Q555 196 560 190T588 180L731 164V0H78V164L207 178Q228 179 234 187T240 219V1266Q240 1289 234 1296T207 1307L78 1321V1483H776Q883 1483 967
1461T1104 1401T1191 1309T1239 1198T1253 1073Q1253 923 1183 830T983 680Q1025 659 1050 623T1102 516L1214 223Q1226 202 1238 195T1276 184L1403 164V0ZM555 819H649Q711 819 756 828T842 861T906 934T928 1055Q928 1169 864 1214T657 1260H555V819Z" />
<glyph unicode="S" glyph-name="S" horiz-adv-x="1214" d="M1090 1028L858 1049L834 1214Q828 1245 809 1253Q740 1276 659 1276Q547 1276 489 1229T430 1102Q430 1005 536 950Q583 926 725 883Q778 867 810 856T891 824T970 781T1035 726T1090 654T1123 561T1137
442Q1137 320 1092 228T966 82T784 2T561 -25Q433 -25 296 2T92 59V459H322L362 264Q366 245 372 238T397 227Q489 205 569 205Q694 205 760 253T827 395Q827 433 813 463T779 514T722 553T654 581T573 606Q564 609 545 614Q501 626 478 633T413 655T347 682T288
714T233 756T188 808T152 873T130 953T121 1049Q121 1164 162 1253T278 1397T452 1481T670 1509Q894 1509 1090 1427V1028Z" />
<glyph unicode="T" glyph-name="T" horiz-adv-x="1421" d="M1128 0H309V162L520 176Q541 177 547 185T553 217V1260H342Q324 1260 318 1256T309 1237L276 1059H51V1483H1370V1059H1147L1114 1237Q1111 1252 1105 1256T1081 1260H870V217Q870 194 875 187T903 178L1128
162V0Z" />
<glyph unicode="U" glyph-name="U" horiz-adv-x="1607" d="M1112 588V1266Q1112 1289 1106 1297T1079 1307L950 1321V1483H1556V1321L1419 1305Q1397 1301 1392 1295T1386 1266V530Q1386 247 1234 111T803 -25Q499 -25 360 112T221 539V1266Q221 1289 215 1297T188
1307L61 1321V1483H709V1321L571 1305Q549 1301 544 1295T539 1266V596Q539 502 551 439T593 327T678 256T815 233Q979 233 1045 313T1112 588Z" />
<glyph unicode="V" glyph-name="V" horiz-adv-x="1505" d="M981 0H563L152 1266Q146 1282 136 1288T102 1300L10 1323L31 1483H651V1323L485 1305L793 281H809L1106 1305L942 1323L963 1483H1493V1323L1407 1300Q1363 1289 1356 1262L981 0Z" />
<glyph unicode="W" glyph-name="W" horiz-adv-x="2136" d="M1688 0H1274L1073 750H1061L872 0H471L162 1264Q158 1282 149 1288T117 1300L12 1323L33 1483H659V1323L487 1303L696 301H713L948 1208H1260L1493 295H1509L1720 1303L1548 1323L1569 1483H2122V1323L2025
1300Q2004 1297 1994 1290T1978 1264L1688 0Z" />
<glyph unicode="X" glyph-name="X" horiz-adv-x="1583" d="M1548 0H877V160L1038 178L760 553L483 178L641 160V0H55V160L174 182Q207 190 227 221L616 725L207 1266Q192 1292 158 1300L51 1323L72 1483H713V1323L553 1305L819 932L1098 1305L940 1323L961 1483H1501V1323L1401
1300Q1372 1293 1350 1262L967 766L1386 221Q1388 219 1395 211T1404 201T1413 194T1425 187T1438 182L1548 160V0Z" />
<glyph unicode="Y" glyph-name="Y" horiz-adv-x="1384" d="M1120 0H317V162L522 176Q543 177 549 185T555 217V553L147 1266Q133 1289 98 1300L6 1323L27 1483H641V1323L481 1305L729 821H745L993 1305L836 1323L856 1483H1378V1323L1292 1300Q1254 1290 1241
1262L870 557V217Q870 194 875 187T903 178L1120 162V0Z" />
<glyph unicode="Z" glyph-name="Z" horiz-adv-x="1376" d="M1284 0H104V199L870 1262H416Q398 1262 392 1258T383 1239L344 1047L123 1040V1483H1247V1276L492 219H991Q1009 219 1015 223T1024 242L1063 461H1284V0Z" />
<glyph unicode="[" glyph-name="bracketleft" horiz-adv-x="630" d="M557 -293H98V1483H557V1327L430 1305Q410 1301 404 1293T397 1264V-72Q397 -94 403 -103T430 -115L557 -137V-293Z" />
<glyph unicode="\" glyph-name="backslash" horiz-adv-x="921" d="M897 -188H614L41 1546H322L897 -188Z" />
<glyph unicode="]" glyph-name="bracketright" horiz-adv-x="630" d="M532 1483V-293H68V-137L201 -115Q220 -112 226 -103T233 -72V1223Q233 1248 232 1260T224 1287T201 1305L68 1327V1483H532Z" />
<glyph unicode="^" glyph-name="asciicircum" horiz-adv-x="1247" d="M1186 612H891L618 1104L352 612H61L465 1360H778L1186 612Z" />
<glyph unicode="_" glyph-name="underscore" horiz-adv-x="1024" d="M1024 -371H0V-152H1024V-371Z" />
<glyph unicode="`" glyph-name="grave" horiz-adv-x="1024" d="M762 1251L645 1149L281 1448L449 1608L762 1251Z" />
<glyph unicode="a" glyph-name="a" horiz-adv-x="1140" d="M1118 0H741L721 111L711 113Q569 -25 367 -25Q293 -25 237 -5T150 45T100 117T74 198T68 279Q68 430 162 506T451 594L686 610V723Q686 765 682 790T665 839T624 874T549 885Q467 885 433 859T399 748L111
772Q111 1087 551 1087Q790 1087 888 1008T987 717V219Q987 194 992 188T1020 178L1118 162V0ZM686 270V440L547 430Q456 424 420 397T383 309Q383 197 500 197Q585 197 686 270Z" />
<glyph unicode="b" glyph-name="b" horiz-adv-x="1247" d="M420 0H127Q158 204 158 299V1298Q158 1333 131 1341L18 1380L41 1546H463V979L471 977Q605 1087 780 1087Q866 1087 935 1058T1060 969T1145 805T1176 563Q1176 260 1061 118T745 -25Q560 -25 444 104L434
102L420 0ZM465 774V295Q552 215 653 215Q752 215 802 302T852 547Q852 631 835 696T774 803T664 846Q572 846 465 774Z" />
<glyph unicode="c" glyph-name="c" horiz-adv-x="1044" d="M901 266L981 76Q908 31 804 3T592 -25Q456 -25 352 16T184 130T88 301T55 518Q55 659 96 768T213 946T390 1051T616 1087Q728 1087 828 1061T981 1001V680L762 690L737 825Q734 851 713 858Q669 872
608 872Q507 872 444 795T381 549Q381 207 645 207Q763 207 901 266Z" />
<glyph unicode="d" glyph-name="d" horiz-adv-x="1251" d="M1221 0H840L819 115L805 117Q660 -25 469 -25Q72 -25 72 520Q72 669 107 781T204 959T341 1055T506 1087Q663 1087 795 989V1300Q795 1332 768 1341L655 1380L678 1546H1090V215Q1090 191 1095 185T1122
176L1221 162V0ZM782 305V788Q692 850 606 850Q498 850 447 762T395 526Q395 217 582 217Q679 217 782 305Z" />
<glyph unicode="e" glyph-name="e" horiz-adv-x="1075" d="M930 283L1006 80Q791 -25 586 -25Q442 -25 337 17T172 138T83 316T55 541Q55 649 81 739T153 893T263 1001T402 1066T563 1087Q776 1087 895 967T1014 592Q1014 537 1010 455H383Q391 339 448 276T625
213Q743 213 930 283ZM385 649H711Q710 769 669 817T557 866Q400 866 385 649Z" />
<glyph unicode="f" glyph-name="f" horiz-adv-x="894" d="M799 0H55V164L170 176Q191 179 197 187T203 219V842Q203 853 201 857T186 862H49V1067H203V1180Q203 1383 313 1477T641 1571Q703 1571 752 1565T851 1539T934 1487T987 1402T1008 1276L721 1241Q722
1317 701 1343T627 1370Q555 1370 534 1335T512 1217V1087Q512 1079 512 1076T516 1070T528 1067H852V862H512V225Q512 201 519 193T549 184L799 162V0Z" />
<glyph unicode="g" glyph-name="g" horiz-adv-x="1165" d="M1139 893L950 879Q1026 780 1026 672Q1026 504 907 408T590 311Q492 311 428 330L360 221L561 209Q807 193 892 175Q1041 143 1091 55Q1124 -4 1124 -96Q1124 -273 977 -369T561 -465Q291 -465 170 -400T49
-209Q49 -145 75 -101T162 0Q72 38 72 135Q72 198 131 260Q178 309 258 383Q179 422 131 501T82 690Q82 872 202 979T551 1087Q661 1087 739 1067H1139V893ZM756 700Q756 790 707 837T569 885T427 838T373 696Q373 617 419 572T563 526Q650 526 703 573T756 700ZM643
-76L344 -55Q291 -120 291 -164Q291 -270 539 -270Q594 -270 634 -267T721 -253T793 -217T819 -152Q819 -136 814 -124T794 -104T769 -92T732 -84T691 -79T643 -76Z" />
<glyph unicode="h" glyph-name="h" horiz-adv-x="1277" d="M1253 0H809V668Q809 842 700 842Q648 842 590 820T487 766V217Q487 192 492 186T520 176L618 162V0H53V162L145 176Q167 179 172 186T178 217V1298Q178 1333 152 1341L39 1380L61 1546H483V967L494 965Q644
1087 821 1087Q979 1087 1048 1004T1118 756V217Q1118 192 1123 186T1151 176L1253 162V0Z" />
<glyph unicode="i" glyph-name="i" horiz-adv-x="647" d="M492 1415Q492 1327 443 1279T305 1231Q217 1231 169 1279T121 1415Q121 1502 169 1548T305 1595Q395 1595 443 1549T492 1415ZM625 0H41V162L145 176Q167 179 172 186T178 217V819Q178 854 152 862L41
901L63 1067H487V217Q487 192 492 186T520 176L625 162V0Z" />
<glyph unicode="j" glyph-name="j" horiz-adv-x="622" d="M174 -57V819Q174 854 147 862L31 901L55 1067H483V-109Q483 -457 127 -457Q15 -457 -79 -423T-215 -352L-127 -182Q-42 -236 51 -236Q117 -236 145 -198T174 -57ZM489 1415Q489 1327 441 1279T303 1231Q215
1231 166 1279T117 1415Q117 1502 166 1548T303 1595Q393 1595 441 1549T489 1415Z" />
<glyph unicode="k" glyph-name="k" horiz-adv-x="1269" d="M1255 0H858L598 522L487 401V217Q487 192 492 186T520 176L643 162V0H43V162L145 176Q167 179 172 186T178 217V1298Q178 1333 152 1341L39 1380L61 1546H487V672L862 1067H1145V905L1038 885Q1020 882
1012 877T987 854L842 700L1104 211Q1114 191 1126 184T1165 174L1255 160V0Z" />
<glyph unicode="l" glyph-name="l" horiz-adv-x="647" d="M621 0H43V162L145 176Q167 179 172 186T178 217V1298Q178 1333 152 1341L39 1380L61 1546H487V217Q487 192 492 186T520 176L621 162V0Z" />
<glyph unicode="m" glyph-name="m" horiz-adv-x="1820" d="M1794 0H1350V662Q1350 698 1347 724T1333 778T1298 822T1235 838Q1154 838 1069 782Q1075 734 1075 682V217Q1075 190 1080 184T1108 174L1190 162V0H766V672Q766 700 765 719T757 762T740 802T708 827T657
838Q613 838 567 819T487 772V217Q487 191 491 186T520 176L621 162V0H53V162L145 176Q167 179 172 186T178 217V819Q178 854 152 862L41 901L63 1067H424L440 961L451 958Q607 1087 778 1087Q956 1087 1028 965Q1185 1087 1358 1087Q1520 1087 1589 1005T1659
741V217Q1659 191 1664 184T1692 174L1794 162V0Z" />
<glyph unicode="n" glyph-name="n" horiz-adv-x="1277" d="M1253 0H809V662Q809 697 808 719T800 767T783 807T751 832T700 842Q648 842 586 818T487 766V217Q487 192 492 186T520 176L618 162V0H53V164L145 176Q167 179 172 186T178 217V819Q178 854 152 862L41
901L66 1067H424L440 961L449 956Q625 1087 809 1087Q972 1087 1045 1000T1118 739V217Q1118 192 1123 186T1151 176L1253 162V0Z" />
<glyph unicode="o" glyph-name="o" horiz-adv-x="1189" d="M582 -25Q445 -25 342 15T177 130T85 304T55 526Q55 789 194 938T608 1087Q747 1087 850 1048T1014 935T1105 766T1135 549Q1135 280 996 128T582 -25ZM596 190Q701 190 756 272T811 539Q811 714 760
790T604 866Q496 866 438 789T379 537Q379 190 596 190Z" />
<glyph unicode="p" glyph-name="p" horiz-adv-x="1259" d="M719 -434H51V-270L133 -258Q155 -255 162 -247T170 -215V819Q170 854 143 862L35 901L57 1067H418L436 963L446 958Q520 1018 613 1052T795 1087Q978 1087 1083 961T1188 563Q1188 483 1177 407T1137
251T1061 111T939 13T766 -25Q602 -25 473 80V-213Q473 -239 478 -246T506 -254L719 -272V-434ZM477 770V293Q567 215 670 215Q769 215 816 302T864 547Q864 699 818 771T690 844Q584 844 477 770Z" />
<glyph unicode="q" glyph-name="q" horiz-adv-x="1220" d="M1219 -434H596V-270L772 -256Q797 -255 805 -247T813 -219V102L803 106Q729 44 655 10T479 -25Q289 -25 181 105T72 512Q72 634 96 732T162 896T259 1005T378 1068T510 1087Q672 1087 807 971L838 1067H1106Q1090
914 1090 735V-219Q1090 -243 1095 -249T1122 -258L1219 -272V-434ZM780 301V784Q684 850 600 850Q495 850 444 761T393 526Q393 373 439 295T586 217Q682 217 780 301Z" />
<glyph unicode="r" glyph-name="r" horiz-adv-x="968" d="M723 0H53V166L145 178Q167 181 172 188T178 219V819Q178 854 152 862L41 901L63 1067H424L449 903H461Q578 1087 750 1087Q861 1087 928 1069V696L682 705L662 813Q656 836 635 836Q570 836 487 764V221Q487
195 492 188T520 180L723 164V0Z" />
<glyph unicode="s" glyph-name="s" horiz-adv-x="997" d="M911 731L692 745L672 852Q669 876 651 881Q599 897 520 897Q444 897 402 870T360 793Q360 765 377 744T424 710T491 687T573 667Q590 664 598 662Q656 649 697 636T788 597T868 538T920 451T942 328Q942
237 907 168T808 58T662 -4T479 -25Q353 -25 231 1T74 49V346L293 330L313 213Q315 198 319 192T338 182Q398 162 496 162Q666 162 666 268Q666 324 619 350T479 393Q326 421 258 450Q83 528 82 729Q82 821 119 891T220 1003T364 1066T535 1087Q645 1087 752 1068T911
1028V731Z" />
<glyph unicode="t" glyph-name="t" horiz-adv-x="892" d="M791 238L846 57Q678 -25 512 -25Q331 -25 254 52T176 305V842Q176 850 176 853T172 859T160 862H16V1044Q151 1060 212 1135T291 1378H485V1087Q485 1075 487 1071T502 1067H791V862H485V373Q485 280
514 243T625 205Q704 205 791 238Z" />
<glyph unicode="u" glyph-name="u" horiz-adv-x="1275" d="M1241 0H860L844 111L834 113Q795 83 765 64T688 21T586 -13T469 -25Q311 -25 242 64T172 336V836Q172 860 167 867T139 879L41 899L61 1067H481V389Q481 292 503 255T590 217Q698 217 801 311V838Q801
862 796 868T768 879L680 899L702 1067H1110V217Q1110 195 1115 187T1139 178L1241 164V0Z" />
<glyph unicode="v" glyph-name="v" horiz-adv-x="1275" d="M819 0H461L135 848Q128 866 120 872T92 883L6 901L39 1067H594V901L463 885L672 301H686L903 885L770 901L797 1067H1270V901L1196 889Q1173 884 1163 878T1145 854L819 0Z" />
<glyph unicode="w" glyph-name="w" horiz-adv-x="1800" d="M1419 0H1096L936 686H924L762 0H393L135 848Q129 865 121 871T92 883L6 901L39 1067H557V897L442 885L606 309H621L803 1040H1112L1288 309H1300L1454 885L1337 897L1364 1067H1794V901L1720 887Q1682
882 1671 846L1419 0Z" />
<glyph unicode="x" glyph-name="x" horiz-adv-x="1234" d="M1214 0H633V160L729 178L573 383L403 180L518 162V0H27V160L119 178Q144 182 172 213L442 512L164 844Q139 870 115 879L33 901L53 1067H598V901L498 885L649 694L817 885L705 901L725 1067H1178V901L1083
881Q1072 877 1065 872T1048 857T1032 842L782 565L1069 215Q1073 211 1080 204T1090 194T1098 187T1109 181T1122 178L1214 162V0Z" />
<glyph unicode="y" glyph-name="y" horiz-adv-x="1267" d="M907 -434H225V-268L385 -250Q418 -248 436 -205L524 -10L133 846Q127 863 119 869T90 881L6 901L39 1067H582V901L453 885L680 344H694L911 885L778 901L805 1067H1262V901L1196 889Q1156 883 1145 854L694
-248L907 -270V-434Z" />
<glyph unicode="z" glyph-name="z" horiz-adv-x="1058" d="M1001 0H72V172L621 874H334Q315 874 311 848L287 733L70 721V1067H969V891L430 190H731Q750 190 754 217L778 358L1001 369V0Z" />
<glyph unicode="{" glyph-name="braceleft" horiz-adv-x="677" d="M610 -141L590 -305Q343 -300 247 -240T150 -20Q150 33 164 156T178 358Q178 441 144 473T35 510V672Q110 677 144 708T178 823Q178 901 164 1026T150 1204Q150 1363 246 1423T590 1489L610 1325Q525
1305 495 1278T465 1178Q465 1127 481 1008T498 823Q498 645 369 590Q432 563 465 510T498 358Q498 294 482 176T465 6Q465 -67 495 -94T610 -141Z" />
<glyph unicode="|" glyph-name="bar" horiz-adv-x="573" d="M426 -293H145V1546H426V-293Z" />
<glyph unicode="}" glyph-name="braceright" horiz-adv-x="677" d="M88 -305L68 -141Q153 -122 183 -95T213 6Q213 58 197 176T180 358Q180 456 213 509T309 590Q246 617 213 671T180 823Q180 888 196 1007T213 1178Q213 1251 183 1278T68 1325L88 1489Q335 1484
431 1424T528 1204Q528 1151 514 1026T500 823Q500 740 534 709T643 672V510Q568 505 534 473T500 358Q500 280 514 157T528 -20Q528 -180 432 -240T88 -305Z" />
<glyph unicode="~" glyph-name="asciitilde" horiz-adv-x="1073" d="M868 942L1028 883Q1003 734 949 664T797 594Q718 594 560 641T344 688Q294 688 262 668T199 590L47 664Q80 785 148 860T311 936Q392 936 543 889T756 842Q802 842 825 863T868 942Z" />
</font>
</defs>
</svg>
